<svg xmlns="http://www.w3.org/2000/svg" xmlns:xlink="http://www.w3.org/1999/xlink" xmlns:lucid="lucid" width="1221" height="1320"><g transform="translate(0 0)" lucid:page-tab-id="opPVUmG3QLxE"><path d="M0 0h1870.4v1323.2H0z" fill="#fff"/><path d="M20 20h260v100H20z" stroke="#000" stroke-width="2" fill="#99d2f2"/><use xlink:href="#a" transform="matrix(1,0,0,1,25,25) translate(60.525000000000006 48.15)"/><path d="M975.2 60c0 22.1-17.9 40-40 40s-40-17.9-40-40 17.9-40 40-40 40 17.9 40 40z" stroke="#000" stroke-width="2" fill="#a3d977"/><use xlink:href="#b" transform="matrix(1,0,0,1,900.1999999999999,25) translate(16.025 38.4625)"/><path d="M975.2 1260c0 22.1-17.9 40-40 40s-40-17.9-40-40 17.9-40 40-40 40 17.9 40 40z" stroke="#000" stroke-width="2" fill="#ff8f80"/><use xlink:href="#c" transform="matrix(1,0,0,1,900.1999999999999,1225) translate(19 38.4625)"/><path d="M778.45 160h313.5v75.9h-313.5z" stroke="#000" stroke-width="2" fill="#fff"/><use xlink:href="#d" transform="matrix(1,0,0,1,783.4499999999441,165) translate(20.69999999999999 16.4625)"/><use xlink:href="#e" transform="matrix(1,0,0,1,783.4499999999441,165) translate(89.6 16.4625)"/><use xlink:href="#f" transform="matrix(1,0,0,1,783.4499999999441,165) translate(165.5 16.4625)"/><use xlink:href="#g" transform="matrix(1,0,0,1,783.4499999999441,165) translate(210.5 16.4625)"/><use xlink:href="#h" transform="matrix(1,0,0,1,783.4499999999441,165) translate(256.4 16.4625)"/><use xlink:href="#i" transform="matrix(1,0,0,1,783.4499999999441,165) translate(2.1750000000000114 38.0625)"/><use xlink:href="#j" transform="matrix(1,0,0,1,783.4499999999441,165) translate(71.07500000000002 38.0625)"/><use xlink:href="#k" transform="matrix(1,0,0,1,783.4499999999441,165) translate(101.07500000000002 38.0625)"/><use xlink:href="#l" transform="matrix(1,0,0,1,783.4499999999441,165) translate(154.925 38.0625)"/><use xlink:href="#m" transform="matrix(1,0,0,1,783.4499999999441,165) translate(189.925 38.0625)"/><use xlink:href="#n" transform="matrix(1,0,0,1,783.4499999999441,165) translate(237.875 38.0625)"/><use xlink:href="#o" transform="matrix(1,0,0,1,783.4499999999441,165) translate(53.099999999999994 59.6625)"/><use xlink:href="#p" transform="matrix(1,0,0,1,783.4499999999441,165) translate(125.05 59.6625)"/><use xlink:href="#q" transform="matrix(1,0,0,1,783.4499999999441,165) translate(165.95 59.6625)"/><use xlink:href="#r" transform="matrix(1,0,0,1,783.4499999999441,165) translate(205.9 59.6625)"/><path d="M935.2 102v38.5" stroke="#000" stroke-width="2" fill="none"/><path d="M935.2 101l1-.03v1.06h-2v-1.1z"/><path d="M935.2 155.76l-4.64-14.26h9.28z" stroke="#000" stroke-width="2"/><path d="M935.2 237.9v22.48" stroke="#000" stroke-width="2" fill="none"/><path d="M936.2 237.92h-2v-1.03h2z"/><path d="M935.2 275.65l-4.64-14.27h9.28z" stroke="#000" stroke-width="2"/><path d="M935.2 280l122.4 60-122.4 60-122.4-60z" stroke="#000" stroke-width="2" fill="#fff"/><use xlink:href="#s" transform="matrix(1,0,0,1,817.8000000000707,285) translate(40.33 59.0875)"/><use xlink:href="#t" transform="matrix(1,0,0,1,817.8000000000707,285) translate(168.18 59.0875)"/><use xlink:href="#u" transform="matrix(1,0,0,1,817.8000000000707,285) translate(183.68 59.0875)"/><path d="M826.05 600h218.3v80h-218.3z" stroke="#000" stroke-width="2" fill="#fff"/><use xlink:href="#v" transform="matrix(1,0,0,1,831.0499999999585,605) translate(3.049999999999997 27.525)"/><use xlink:href="#j" transform="matrix(1,0,0,1,831.0499999999585,605) translate(59 27.525)"/><use xlink:href="#o" transform="matrix(1,0,0,1,831.0499999999585,605) translate(89 27.525)"/><use xlink:href="#w" transform="matrix(1,0,0,1,831.0499999999585,605) translate(160.95 27.525)"/><use xlink:href="#x" transform="matrix(1,0,0,1,831.0499999999585,605) translate(180.95 27.525)"/><use xlink:href="#y" transform="matrix(1,0,0,1,831.0499999999585,605) translate(0.5750000000000028 49.125)"/><use xlink:href="#z" transform="matrix(1,0,0,1,831.0499999999585,605) translate(72.525 49.125)"/><use xlink:href="#A" transform="matrix(1,0,0,1,831.0499999999585,605) translate(107.525 49.125)"/><use xlink:href="#B" transform="matrix(1,0,0,1,831.0499999999585,605) translate(159.425 49.125)"/><path d="M935.2 682v38.5" stroke="#000" stroke-width="2" fill="none"/><path d="M936.2 682.03h-2V681h2z"/><path d="M935.2 735.76l-4.64-14.26h9.28z" stroke="#000" stroke-width="2"/><path d="M817.6 740h235.2v80H817.6z" stroke="#000" stroke-width="2" fill="#fff"/><use xlink:href="#C" transform="matrix(1,0,0,1,822.5999999999981,745) translate(11.125 27.525)"/><use xlink:href="#j" transform="matrix(1,0,0,1,822.5999999999981,745) translate(74.075 27.525)"/><use xlink:href="#k" transform="matrix(1,0,0,1,822.5999999999981,745) translate(104.075 27.525)"/><use xlink:href="#D" transform="matrix(1,0,0,1,822.5999999999981,745) translate(157.925 27.525)"/><use xlink:href="#E" transform="matrix(1,0,0,1,822.5999999999981,745) translate(176.875 27.525)"/><use xlink:href="#F" transform="matrix(1,0,0,1,822.5999999999981,745) translate(15.774999999999991 49.125)"/><use xlink:href="#G" transform="matrix(1,0,0,1,822.5999999999981,745) translate(63.724999999999994 49.125)"/><use xlink:href="#H" transform="matrix(1,0,0,1,822.5999999999981,745) translate(113.725 49.125)"/><use xlink:href="#I" transform="matrix(1,0,0,1,822.5999999999981,745) translate(174.625 49.125)"/><path d="M935.2 822v38.5" stroke="#000" stroke-width="2" fill="none"/><path d="M936.2 822.03h-2V821h2z"/><path d="M935.2 875.76l-4.64-14.26h9.28z" stroke="#000" stroke-width="2"/><path d="M821.82 880h226.75v80H821.82z" stroke="#000" stroke-width="2" fill="#fff"/><g><use xlink:href="#J" transform="matrix(1,0,0,1,826.8249999999309,885) translate(5.624999999999986 27.525)"/><use xlink:href="#K" transform="matrix(1,0,0,1,826.8249999999309,885) translate(77.52499999999999 27.525)"/><use xlink:href="#f" transform="matrix(1,0,0,1,826.8249999999309,885) translate(130.475 27.525)"/><use xlink:href="#L" transform="matrix(1,0,0,1,826.8249999999309,885) translate(175.47500000000002 27.525)"/><use xlink:href="#M" transform="matrix(1,0,0,1,826.8249999999309,885) translate(49.074999999999996 49.125)"/></g><path d="M1211 1002H934.2v-40h2v38H1209V341h-132.9v-2H1211z"/><path d="M936.2 962.03h-2V961h2zM1075.1 344.64l-14.26-4.64 14.26-4.64z"/><path d="M1076.1 346l-18.5-6 18.5-6zm-12.03-6l10.03 3.26v-6.52z"/><path d="M818.3 460h226.05v80H818.3z" stroke="#000" stroke-width="2" fill="#fff"/><g><use xlink:href="#N" transform="matrix(1,0,0,1,823.2999999999743,465) translate(6.124999999999986 27.525)"/><use xlink:href="#e" transform="matrix(1,0,0,1,823.2999999999743,465) translate(58.07499999999999 27.525)"/><use xlink:href="#f" transform="matrix(1,0,0,1,823.2999999999743,465) translate(133.975 27.525)"/><use xlink:href="#O" transform="matrix(1,0,0,1,823.2999999999743,465) translate(178.97500000000002 27.525)"/><use xlink:href="#P" transform="matrix(1,0,0,1,823.2999999999743,465) translate(38.05 49.125)"/><use xlink:href="#Q" transform="matrix(1,0,0,1,823.2999999999743,465) translate(107 49.125)"/></g><path d="M936.2 419.26h-2V402.1h2z"/><path d="M936.2 402.14h-2v-1.52l1 .5 1-.5zM935.17 455.76l-4.64-14.26h9.27z"/><path d="M935.17 459l-5.9-18.14h11.8zm-3.26-16.5l3.27 10.03 3.26-10.03z"/><g><use xlink:href="#R" transform="matrix(1,0,0,1,917.0593750000596,419.25684203219987) translate(0 14.4)"/></g><path d="M931.32 542v38.5" stroke="#000" stroke-width="2" fill="none"/><path d="M932.33 542.03h-2V541h2z"/><path d="M931.32 595.76l-4.63-14.26h9.26z" stroke="#000" stroke-width="2"/><path d="M691 1018h245.2v42.5h-2V1020H689V782.64h2zm118.53-677H691v420.04h-2V339h120.53z"/><path d="M810.53 340l2.04 1h-3.07v-2h3.07zM935.2 1075.76l-4.64-14.26h9.28z"/><path d="M935.2 1079l-6-18.5h12zm-3.26-16.5l3.26 10.03 3.26-10.03z"/><g><use xlink:href="#S" transform="matrix(1,0,0,1,678.525,761.0359577456812) translate(0 14.4)"/></g><path d="M805.2 1080h260v80h-260z" stroke="#000" stroke-width="2" fill="#fff"/><g><use xlink:href="#d" transform="matrix(1,0,0,1,810.2000000000471,1085) translate(8.699999999999989 27.525)"/><use xlink:href="#j" transform="matrix(1,0,0,1,810.2000000000471,1085) translate(77.6 27.525)"/><use xlink:href="#T" transform="matrix(1,0,0,1,810.2000000000471,1085) translate(107.6 27.525)"/><use xlink:href="#l" transform="matrix(1,0,0,1,810.2000000000471,1085) translate(156.5 27.525)"/><use xlink:href="#U" transform="matrix(1,0,0,1,810.2000000000471,1085) translate(191.5 27.525)"/><use xlink:href="#V" transform="matrix(1,0,0,1,810.2000000000471,1085) translate(221.3 27.525)"/><use xlink:href="#W" transform="matrix(1,0,0,1,810.2000000000471,1085) translate(91.55 49.125)"/></g><path d="M935.2 1162v38.5" stroke="#000" stroke-width="2" fill="none"/><path d="M936.2 1162.03h-2V1161h2z"/><path d="M935.2 1215.76l-4.64-14.26h9.28z" stroke="#000" stroke-width="2"/><defs><path d="M177-190C167-65 218 103 67 71c-23-6-38-20-44-43l32-5c15 47 100 32 89-28v-30C133-14 115 1 83 1 29 1 15-40 15-95c0-56 16-97 71-98 29-1 48 16 59 35 1-10 0-23 2-32h30zM94-22c36 0 50-32 50-73 0-42-14-75-50-75-39 0-46 34-46 75s6 73 46 73" id="X"/><path d="M100-194c63 0 86 42 84 106H49c0 40 14 67 53 68 26 1 43-12 49-29l28 8c-11 28-37 45-77 45C44 4 14-33 15-96c1-61 26-98 85-98zm52 81c6-60-76-77-97-28-3 7-6 17-6 28h103" id="Y"/><path d="M59-47c-2 24 18 29 38 22v24C64 9 27 4 27-40v-127H5v-23h24l9-43h21v43h35v23H59v120" id="Z"/><path d="M185-189c-5-48-123-54-124 2 14 75 158 14 163 119 3 78-121 87-175 55-17-10-28-26-33-46l33-7c5 56 141 63 141-1 0-78-155-14-162-118-5-82 145-84 179-34 5 7 8 16 11 25" id="aa"/><path d="M106-169C34-169 62-67 57 0H25v-261h32l-1 103c12-21 28-36 61-36 89 0 53 116 60 194h-32v-121c2-32-8-49-39-48" id="ab"/><path d="M100-194c62-1 85 37 85 99 1 63-27 99-86 99S16-35 15-95c0-66 28-99 85-99zM99-20c44 1 53-31 53-75 0-43-8-75-51-75s-53 32-53 75 10 74 51 75" id="ac"/><path d="M114-163C36-179 61-72 57 0H25l-1-190h30c1 12-1 29 2 39 6-27 23-49 58-41v29" id="ad"/><path d="M135-143c-3-34-86-38-87 0 15 53 115 12 119 90S17 21 10-45l28-5c4 36 97 45 98 0-10-56-113-15-118-90-4-57 82-63 122-42 12 7 21 19 24 35" id="ae"/><path d="M30-248c87 1 191-15 191 75 0 78-77 80-158 76V0H30v-248zm33 125c57 0 124 11 124-50 0-59-68-47-124-48v98" id="af"/><path d="M141-36C126-15 110 5 73 4 37 3 15-17 15-53c-1-64 63-63 125-63 3-35-9-54-41-54-24 1-41 7-42 31l-33-3c5-37 33-52 76-52 45 0 72 20 72 64v82c-1 20 7 32 28 27v20c-31 9-61-2-59-35zM48-53c0 20 12 33 32 33 41-3 63-29 60-74-43 2-92-5-92 41" id="ag"/><g id="a"><use transform="matrix(0.05,0,0,0.05,0,0)" xlink:href="#X"/><use transform="matrix(0.05,0,0,0.05,10,0)" xlink:href="#Y"/><use transform="matrix(0.05,0,0,0.05,20,0)" xlink:href="#Z"/><use transform="matrix(0.05,0,0,0.05,25,0)" xlink:href="#aa"/><use transform="matrix(0.05,0,0,0.05,37,0)" xlink:href="#ab"/><use transform="matrix(0.05,0,0,0.05,47,0)" xlink:href="#ac"/><use transform="matrix(0.05,0,0,0.05,57,0)" xlink:href="#ad"/><use transform="matrix(0.05,0,0,0.05,62.95,0)" xlink:href="#Z"/><use transform="matrix(0.05,0,0,0.05,67.95,0)" xlink:href="#Y"/><use transform="matrix(0.05,0,0,0.05,77.95,0)" xlink:href="#ae"/><use transform="matrix(0.05,0,0,0.05,86.95,0)" xlink:href="#Z"/><use transform="matrix(0.05,0,0,0.05,91.95,0)" xlink:href="#af"/><use transform="matrix(0.05,0,0,0.05,103.95,0)" xlink:href="#ag"/><use transform="matrix(0.05,0,0,0.05,113.95,0)" xlink:href="#Z"/><use transform="matrix(0.05,0,0,0.05,118.95,0)" xlink:href="#ab"/></g><g id="b"><use transform="matrix(0.05,0,0,0.05,0,0)" xlink:href="#aa"/><use transform="matrix(0.05,0,0,0.05,12,0)" xlink:href="#Z"/><use transform="matrix(0.05,0,0,0.05,17,0)" xlink:href="#ag"/><use transform="matrix(0.05,0,0,0.05,27,0)" xlink:href="#ad"/><use transform="matrix(0.05,0,0,0.05,32.95,0)" xlink:href="#Z"/></g><path d="M30 0v-248h187v28H63v79h144v27H63v87h162V0H30" id="ah"/><path d="M117-194c89-4 53 116 60 194h-32v-121c0-31-8-49-39-48C34-167 62-67 57 0H25l-1-190h30c1 10-1 24 2 32 11-22 29-35 61-36" id="ai"/><path d="M85-194c31 0 48 13 60 33l-1-100h32l1 261h-30c-2-10 0-23-3-31C134-8 116 4 85 4 32 4 16-35 15-94c0-66 23-100 70-100zm9 24c-40 0-46 34-46 75 0 40 6 74 45 74 42 0 51-32 51-76 0-42-9-74-50-73" id="aj"/><g id="c"><use transform="matrix(0.05,0,0,0.05,0,0)" xlink:href="#ah"/><use transform="matrix(0.05,0,0,0.05,12,0)" xlink:href="#ai"/><use transform="matrix(0.05,0,0,0.05,22,0)" xlink:href="#aj"/></g><path d="M115-194c55 1 70 41 70 98S169 2 115 4C84 4 66-9 55-30l1 105H24l-1-265h31l2 30c10-21 28-34 59-34zm-8 174c40 0 45-34 45-75s-6-73-45-74c-42 0-51 32-51 76 0 43 10 73 51 73" id="ak"/><g id="d"><use transform="matrix(0.05,0,0,0.05,0,0)" xlink:href="#af"/><use transform="matrix(0.05,0,0,0.05,12,0)" xlink:href="#ad"/><use transform="matrix(0.05,0,0,0.05,17.95,0)" xlink:href="#Y"/><use transform="matrix(0.05,0,0,0.05,27.950000000000003,0)" xlink:href="#ak"/><use transform="matrix(0.05,0,0,0.05,37.95,0)" xlink:href="#ag"/><use transform="matrix(0.05,0,0,0.05,47.95,0)" xlink:href="#ad"/><use transform="matrix(0.05,0,0,0.05,53.900000000000006,0)" xlink:href="#Y"/></g><path d="M84 4C-5 8 30-112 23-190h32v120c0 31 7 50 39 49 72-2 45-101 50-169h31l1 190h-30c-1-10 1-25-2-33-11 22-28 36-60 37" id="al"/><path d="M108 0H70L1-190h34L89-25l56-165h34" id="am"/><path d="M24-231v-30h32v30H24zM24 0v-190h32V0H24" id="an"/><g id="e"><use transform="matrix(0.05,0,0,0.05,0,0)" xlink:href="#al"/><use transform="matrix(0.05,0,0,0.05,10,0)" xlink:href="#ai"/><use transform="matrix(0.05,0,0,0.05,20,0)" xlink:href="#am"/><use transform="matrix(0.05,0,0,0.05,29,0)" xlink:href="#an"/><use transform="matrix(0.05,0,0,0.05,32.95,0)" xlink:href="#ae"/><use transform="matrix(0.05,0,0,0.05,41.95,0)" xlink:href="#an"/><use transform="matrix(0.05,0,0,0.05,45.900000000000006,0)" xlink:href="#Z"/><use transform="matrix(0.05,0,0,0.05,50.900000000000006,0)" xlink:href="#Y"/><use transform="matrix(0.05,0,0,0.05,60.900000000000006,0)" xlink:href="#aj"/></g><g id="f"><use transform="matrix(0.05,0,0,0.05,0,0)" xlink:href="#ai"/><use transform="matrix(0.05,0,0,0.05,10,0)" xlink:href="#ac"/><use transform="matrix(0.05,0,0,0.05,20,0)" xlink:href="#aj"/><use transform="matrix(0.05,0,0,0.05,30,0)" xlink:href="#Y"/></g><path d="M179-190L93 31C79 59 56 82 12 73V49c39 6 53-20 64-50L1-190h34L92-34l54-156h33" id="ao"/><g id="g"><use transform="matrix(0.05,0,0,0.05,0,0)" xlink:href="#ag"/><use transform="matrix(0.05,0,0,0.05,10,0)" xlink:href="#ad"/><use transform="matrix(0.05,0,0,0.05,15.949999999999998,0)" xlink:href="#ad"/><use transform="matrix(0.05,0,0,0.05,21.9,0)" xlink:href="#ag"/><use transform="matrix(0.05,0,0,0.05,31.899999999999995,0)" xlink:href="#ao"/></g><path d="M24 0v-261h32V0H24" id="ap"/><path d="M33 0v-38h34V0H33" id="aq"/><g id="h"><use transform="matrix(0.05,0,0,0.05,0,0)" xlink:href="#ap"/><use transform="matrix(0.05,0,0,0.05,3.95,0)" xlink:href="#an"/><use transform="matrix(0.05,0,0,0.05,7.9,0)" xlink:href="#ae"/><use transform="matrix(0.05,0,0,0.05,16.9,0)" xlink:href="#Z"/><use transform="matrix(0.05,0,0,0.05,21.9,0)" xlink:href="#aq"/></g><g id="i"><use transform="matrix(0.05,0,0,0.05,0,0)" xlink:href="#af"/><use transform="matrix(0.05,0,0,0.05,12,0)" xlink:href="#ad"/><use transform="matrix(0.05,0,0,0.05,17.95,0)" xlink:href="#Y"/><use transform="matrix(0.05,0,0,0.05,27.950000000000003,0)" xlink:href="#ak"/><use transform="matrix(0.05,0,0,0.05,37.95,0)" xlink:href="#ag"/><use transform="matrix(0.05,0,0,0.05,47.95,0)" xlink:href="#ad"/><use transform="matrix(0.05,0,0,0.05,53.900000000000006,0)" xlink:href="#Y"/></g><g id="j"><use transform="matrix(0.05,0,0,0.05,0,0)" xlink:href="#Z"/><use transform="matrix(0.05,0,0,0.05,5,0)" xlink:href="#ab"/><use transform="matrix(0.05,0,0,0.05,15,0)" xlink:href="#Y"/></g><path d="M210-169c-67 3-38 105-44 169h-31v-121c0-29-5-50-35-48C34-165 62-65 56 0H25l-1-190h30c1 10-1 24 2 32 10-44 99-50 107 0 11-21 27-35 58-36 85-2 47 119 55 194h-31v-121c0-29-5-49-35-48" id="ar"/><path d="M141 0L90-78 38 0H4l68-98-65-92h35l48 74 47-74h35l-64 92 68 98h-35" id="as"/><g id="k"><use transform="matrix(0.05,0,0,0.05,0,0)" xlink:href="#ar"/><use transform="matrix(0.05,0,0,0.05,14.950000000000001,0)" xlink:href="#ag"/><use transform="matrix(0.05,0,0,0.05,24.950000000000003,0)" xlink:href="#Z"/><use transform="matrix(0.05,0,0,0.05,29.950000000000003,0)" xlink:href="#ad"/><use transform="matrix(0.05,0,0,0.05,35.900000000000006,0)" xlink:href="#an"/><use transform="matrix(0.05,0,0,0.05,39.85000000000001,0)" xlink:href="#as"/></g><g id="l"><use transform="matrix(0.05,0,0,0.05,0,0)" xlink:href="#Z"/><use transform="matrix(0.05,0,0,0.05,5,0)" xlink:href="#ab"/><use transform="matrix(0.05,0,0,0.05,15,0)" xlink:href="#ag"/><use transform="matrix(0.05,0,0,0.05,25,0)" xlink:href="#Z"/></g><g id="m"><use transform="matrix(0.05,0,0,0.05,0,0)" xlink:href="#ab"/><use transform="matrix(0.05,0,0,0.05,10,0)" xlink:href="#ac"/><use transform="matrix(0.05,0,0,0.05,20,0)" xlink:href="#ap"/><use transform="matrix(0.05,0,0,0.05,23.95,0)" xlink:href="#aj"/><use transform="matrix(0.05,0,0,0.05,33.95,0)" xlink:href="#ae"/></g><g id="n"><use transform="matrix(0.05,0,0,0.05,0,0)" xlink:href="#ae"/><use transform="matrix(0.05,0,0,0.05,9,0)" xlink:href="#ab"/><use transform="matrix(0.05,0,0,0.05,19,0)" xlink:href="#ac"/><use transform="matrix(0.05,0,0,0.05,29,0)" xlink:href="#ad"/><use transform="matrix(0.05,0,0,0.05,34.95,0)" xlink:href="#Z"/><use transform="matrix(0.05,0,0,0.05,39.95,0)" xlink:href="#Y"/><use transform="matrix(0.05,0,0,0.05,49.95,0)" xlink:href="#ae"/><use transform="matrix(0.05,0,0,0.05,58.95,0)" xlink:href="#Z"/></g><path d="M96-169c-40 0-48 33-48 73s9 75 48 75c24 0 41-14 43-38l32 2c-6 37-31 61-74 61-59 0-76-41-82-99-10-93 101-131 147-64 4 7 5 14 7 22l-32 3c-4-21-16-35-41-35" id="at"/><g id="o"><use transform="matrix(0.05,0,0,0.05,0,0)" xlink:href="#aj"/><use transform="matrix(0.05,0,0,0.05,10,0)" xlink:href="#an"/><use transform="matrix(0.05,0,0,0.05,13.949999999999998,0)" xlink:href="#ae"/><use transform="matrix(0.05,0,0,0.05,22.95,0)" xlink:href="#Z"/><use transform="matrix(0.05,0,0,0.05,27.950000000000003,0)" xlink:href="#ag"/><use transform="matrix(0.05,0,0,0.05,37.95,0)" xlink:href="#ai"/><use transform="matrix(0.05,0,0,0.05,47.95,0)" xlink:href="#at"/><use transform="matrix(0.05,0,0,0.05,56.95,0)" xlink:href="#Y"/></g><path d="M101-234c-31-9-42 10-38 44h38v23H63V0H32v-167H5v-23h27c-7-52 17-82 69-68v24" id="au"/><g id="p"><use transform="matrix(0.05,0,0,0.05,0,0)" xlink:href="#au"/><use transform="matrix(0.05,0,0,0.05,5,0)" xlink:href="#ad"/><use transform="matrix(0.05,0,0,0.05,10.95,0)" xlink:href="#ac"/><use transform="matrix(0.05,0,0,0.05,20.95,0)" xlink:href="#ar"/></g><g id="q"><use transform="matrix(0.05,0,0,0.05,0,0)" xlink:href="#ae"/><use transform="matrix(0.05,0,0,0.05,9,0)" xlink:href="#Z"/><use transform="matrix(0.05,0,0,0.05,14,0)" xlink:href="#ag"/><use transform="matrix(0.05,0,0,0.05,24,0)" xlink:href="#ad"/><use transform="matrix(0.05,0,0,0.05,29.950000000000003,0)" xlink:href="#Z"/></g><g id="r"><use transform="matrix(0.05,0,0,0.05,0,0)" xlink:href="#ai"/><use transform="matrix(0.05,0,0,0.05,10,0)" xlink:href="#ac"/><use transform="matrix(0.05,0,0,0.05,20,0)" xlink:href="#aj"/><use transform="matrix(0.05,0,0,0.05,30,0)" xlink:href="#Y"/><use transform="matrix(0.05,0,0,0.05,40,0)" xlink:href="#aq"/></g><path d="M190 0L58-211 59 0H30v-248h39L202-35l-2-213h31V0h-41" id="av"/><g id="s"><use transform="matrix(0.05,0,0,0.05,0,0)" xlink:href="#al"/><use transform="matrix(0.05,0,0,0.05,10,0)" xlink:href="#ai"/><use transform="matrix(0.05,0,0,0.05,20,0)" xlink:href="#am"/><use transform="matrix(0.05,0,0,0.05,29,0)" xlink:href="#an"/><use transform="matrix(0.05,0,0,0.05,32.95,0)" xlink:href="#ae"/><use transform="matrix(0.05,0,0,0.05,41.95,0)" xlink:href="#an"/><use transform="matrix(0.05,0,0,0.05,45.900000000000006,0)" xlink:href="#Z"/><use transform="matrix(0.05,0,0,0.05,50.900000000000006,0)" xlink:href="#Y"/><use transform="matrix(0.05,0,0,0.05,60.900000000000006,0)" xlink:href="#aj"/><use transform="matrix(0.05,0,0,0.05,70.9,0)" xlink:href="#av"/><use transform="matrix(0.05,0,0,0.05,83.85000000000001,0)" xlink:href="#ac"/><use transform="matrix(0.05,0,0,0.05,93.85000000000001,0)" xlink:href="#aj"/><use transform="matrix(0.05,0,0,0.05,103.85000000000001,0)" xlink:href="#Y"/><use transform="matrix(0.05,0,0,0.05,113.85000000000001,0)" xlink:href="#ae"/></g><path d="M18-27v-27l151-64-151-65v-27l175 74v36" id="aw"/><use transform="matrix(0.05,0,0,0.05,0,0)" xlink:href="#aw" id="t"/><path d="M101-251c68 0 85 55 85 127S166 4 100 4C33 4 14-52 14-124c0-73 17-127 87-127zm-1 229c47 0 54-49 54-102s-4-102-53-102c-51 0-55 48-55 102 0 53 5 102 54 102" id="ax"/><use transform="matrix(0.05,0,0,0.05,0,0)" xlink:href="#ax" id="u"/><path d="M212-179c-10-28-35-45-73-45-59 0-87 40-87 99 0 60 29 101 89 101 43 0 62-24 78-52l27 14C228-24 195 4 139 4 59 4 22-46 18-125c-6-104 99-153 187-111 19 9 31 26 39 46" id="ay"/><path d="M143 0L79-87 56-68V0H24v-261h32v163l83-92h37l-77 82L181 0h-38" id="az"/><g id="v"><use transform="matrix(0.05,0,0,0.05,0,0)" xlink:href="#ay"/><use transform="matrix(0.05,0,0,0.05,12.950000000000001,0)" xlink:href="#ab"/><use transform="matrix(0.05,0,0,0.05,22.950000000000003,0)" xlink:href="#Y"/><use transform="matrix(0.05,0,0,0.05,32.95,0)" xlink:href="#at"/><use transform="matrix(0.05,0,0,0.05,41.95,0)" xlink:href="#az"/></g><g id="w"><use transform="matrix(0.05,0,0,0.05,0,0)" xlink:href="#Z"/><use transform="matrix(0.05,0,0,0.05,5,0)" xlink:href="#ac"/></g><g id="x"><use transform="matrix(0.05,0,0,0.05,0,0)" xlink:href="#Z"/><use transform="matrix(0.05,0,0,0.05,5,0)" xlink:href="#ab"/><use transform="matrix(0.05,0,0,0.05,15,0)" xlink:href="#Y"/></g><g id="y"><use transform="matrix(0.05,0,0,0.05,0,0)" xlink:href="#al"/><use transform="matrix(0.05,0,0,0.05,10,0)" xlink:href="#ai"/><use transform="matrix(0.05,0,0,0.05,20,0)" xlink:href="#am"/><use transform="matrix(0.05,0,0,0.05,29,0)" xlink:href="#an"/><use transform="matrix(0.05,0,0,0.05,32.95,0)" xlink:href="#ae"/><use transform="matrix(0.05,0,0,0.05,41.95,0)" xlink:href="#Z"/><use transform="matrix(0.05,0,0,0.05,46.95,0)" xlink:href="#Y"/><use transform="matrix(0.05,0,0,0.05,56.95,0)" xlink:href="#aj"/></g><g id="z"><use transform="matrix(0.05,0,0,0.05,0,0)" xlink:href="#ag"/><use transform="matrix(0.05,0,0,0.05,10,0)" xlink:href="#ai"/><use transform="matrix(0.05,0,0,0.05,20,0)" xlink:href="#aj"/></g><g id="A"><use transform="matrix(0.05,0,0,0.05,0,0)" xlink:href="#ap"/><use transform="matrix(0.05,0,0,0.05,3.95,0)" xlink:href="#an"/><use transform="matrix(0.05,0,0,0.05,7.9,0)" xlink:href="#ai"/><use transform="matrix(0.05,0,0,0.05,17.9,0)" xlink:href="#az"/><use transform="matrix(0.05,0,0,0.05,26.899999999999995,0)" xlink:href="#Y"/><use transform="matrix(0.05,0,0,0.05,36.9,0)" xlink:href="#aj"/></g><g id="B"><use transform="matrix(0.05,0,0,0.05,0,0)" xlink:href="#ai"/><use transform="matrix(0.05,0,0,0.05,10,0)" xlink:href="#ac"/><use transform="matrix(0.05,0,0,0.05,20,0)" xlink:href="#aj"/><use transform="matrix(0.05,0,0,0.05,30,0)" xlink:href="#Y"/><use transform="matrix(0.05,0,0,0.05,40,0)" xlink:href="#ae"/></g><path d="M232-93c-1 65-40 97-104 97C67 4 28-28 28-90v-158h33c8 89-33 224 67 224 102 0 64-133 71-224h33v155" id="aA"/><g id="C"><use transform="matrix(0.05,0,0,0.05,0,0)" xlink:href="#aA"/><use transform="matrix(0.05,0,0,0.05,12.950000000000001,0)" xlink:href="#ak"/><use transform="matrix(0.05,0,0,0.05,22.950000000000003,0)" xlink:href="#aj"/><use transform="matrix(0.05,0,0,0.05,32.95,0)" xlink:href="#ag"/><use transform="matrix(0.05,0,0,0.05,42.95,0)" xlink:href="#Z"/><use transform="matrix(0.05,0,0,0.05,47.95,0)" xlink:href="#Y"/></g><g id="D"><use transform="matrix(0.05,0,0,0.05,0,0)" xlink:href="#an"/><use transform="matrix(0.05,0,0,0.05,3.95,0)" xlink:href="#ai"/></g><g id="E"><use transform="matrix(0.05,0,0,0.05,0,0)" xlink:href="#at"/><use transform="matrix(0.05,0,0,0.05,9,0)" xlink:href="#ag"/><use transform="matrix(0.05,0,0,0.05,19,0)" xlink:href="#ae"/><use transform="matrix(0.05,0,0,0.05,28,0)" xlink:href="#Y"/></g><g id="F"><use transform="matrix(0.05,0,0,0.05,0,0)" xlink:href="#at"/><use transform="matrix(0.05,0,0,0.05,9,0)" xlink:href="#ac"/><use transform="matrix(0.05,0,0,0.05,19,0)" xlink:href="#al"/><use transform="matrix(0.05,0,0,0.05,29,0)" xlink:href="#ap"/><use transform="matrix(0.05,0,0,0.05,32.95,0)" xlink:href="#aj"/></g><g id="G"><use transform="matrix(0.05,0,0,0.05,0,0)" xlink:href="#au"/><use transform="matrix(0.05,0,0,0.05,5,0)" xlink:href="#ac"/><use transform="matrix(0.05,0,0,0.05,15,0)" xlink:href="#al"/><use transform="matrix(0.05,0,0,0.05,25,0)" xlink:href="#ai"/><use transform="matrix(0.05,0,0,0.05,35,0)" xlink:href="#aj"/></g><g id="H"><use transform="matrix(0.05,0,0,0.05,0,0)" xlink:href="#ae"/><use transform="matrix(0.05,0,0,0.05,9,0)" xlink:href="#ab"/><use transform="matrix(0.05,0,0,0.05,19,0)" xlink:href="#ac"/><use transform="matrix(0.05,0,0,0.05,29,0)" xlink:href="#ad"/><use transform="matrix(0.05,0,0,0.05,34.95,0)" xlink:href="#Z"/><use transform="matrix(0.05,0,0,0.05,39.95,0)" xlink:href="#Y"/><use transform="matrix(0.05,0,0,0.05,49.95,0)" xlink:href="#ad"/></g><path d="M206 0h-36l-40-164L89 0H53L-1-190h32L70-26l43-164h34l41 164 42-164h31" id="aB"/><g id="I"><use transform="matrix(0.05,0,0,0.05,0,0)" xlink:href="#aB"/><use transform="matrix(0.05,0,0,0.05,12.950000000000001,0)" xlink:href="#ag"/><use transform="matrix(0.05,0,0,0.05,22.950000000000003,0)" xlink:href="#ao"/><use transform="matrix(0.05,0,0,0.05,30.6,0)" xlink:href="#aq"/></g><path d="M233-177c-1 41-23 64-60 70L243 0h-38l-65-103H63V0H30v-248c88 3 205-21 203 71zM63-129c60-2 137 13 137-47 0-61-80-42-137-45v92" id="aC"/><g id="J"><use transform="matrix(0.05,0,0,0.05,0,0)" xlink:href="#aC"/><use transform="matrix(0.05,0,0,0.05,12.950000000000001,0)" xlink:href="#Y"/><use transform="matrix(0.05,0,0,0.05,22.950000000000003,0)" xlink:href="#ar"/><use transform="matrix(0.05,0,0,0.05,37.900000000000006,0)" xlink:href="#ac"/><use transform="matrix(0.05,0,0,0.05,47.900000000000006,0)" xlink:href="#am"/><use transform="matrix(0.05,0,0,0.05,56.900000000000006,0)" xlink:href="#Y"/></g><g id="K"><use transform="matrix(0.05,0,0,0.05,0,0)" xlink:href="#ag"/><use transform="matrix(0.05,0,0,0.05,10,0)" xlink:href="#at"/><use transform="matrix(0.05,0,0,0.05,19,0)" xlink:href="#Z"/><use transform="matrix(0.05,0,0,0.05,24,0)" xlink:href="#al"/><use transform="matrix(0.05,0,0,0.05,34,0)" xlink:href="#ag"/><use transform="matrix(0.05,0,0,0.05,44,0)" xlink:href="#ap"/></g><g id="L"><use transform="matrix(0.05,0,0,0.05,0,0)" xlink:href="#au"/><use transform="matrix(0.05,0,0,0.05,5,0)" xlink:href="#ad"/><use transform="matrix(0.05,0,0,0.05,10.95,0)" xlink:href="#ac"/><use transform="matrix(0.05,0,0,0.05,20.95,0)" xlink:href="#ar"/></g><g id="M"><use transform="matrix(0.05,0,0,0.05,0,0)" xlink:href="#al"/><use transform="matrix(0.05,0,0,0.05,10,0)" xlink:href="#ai"/><use transform="matrix(0.05,0,0,0.05,20,0)" xlink:href="#an"/><use transform="matrix(0.05,0,0,0.05,23.95,0)" xlink:href="#ae"/><use transform="matrix(0.05,0,0,0.05,32.95,0)" xlink:href="#an"/><use transform="matrix(0.05,0,0,0.05,36.900000000000006,0)" xlink:href="#Z"/><use transform="matrix(0.05,0,0,0.05,41.900000000000006,0)" xlink:href="#Y"/><use transform="matrix(0.05,0,0,0.05,51.900000000000006,0)" xlink:href="#aj"/><use transform="matrix(0.05,0,0,0.05,61.900000000000006,0)" xlink:href="#av"/><use transform="matrix(0.05,0,0,0.05,74.85000000000001,0)" xlink:href="#ac"/><use transform="matrix(0.05,0,0,0.05,84.85000000000001,0)" xlink:href="#aj"/><use transform="matrix(0.05,0,0,0.05,94.85000000000001,0)" xlink:href="#Y"/><use transform="matrix(0.05,0,0,0.05,104.85000000000001,0)" xlink:href="#ae"/><use transform="matrix(0.05,0,0,0.05,113.85000000000001,0)" xlink:href="#aq"/></g><g id="N"><use transform="matrix(0.05,0,0,0.05,0,0)" xlink:href="#ae"/><use transform="matrix(0.05,0,0,0.05,9,0)" xlink:href="#Y"/><use transform="matrix(0.05,0,0,0.05,19,0)" xlink:href="#ap"/><use transform="matrix(0.05,0,0,0.05,22.95,0)" xlink:href="#Y"/><use transform="matrix(0.05,0,0,0.05,32.95,0)" xlink:href="#at"/><use transform="matrix(0.05,0,0,0.05,41.95,0)" xlink:href="#Z"/></g><g id="O"><use transform="matrix(0.05,0,0,0.05,0,0)" xlink:href="#aB"/><use transform="matrix(0.05,0,0,0.05,12.950000000000001,0)" xlink:href="#an"/><use transform="matrix(0.05,0,0,0.05,16.900000000000002,0)" xlink:href="#Z"/><use transform="matrix(0.05,0,0,0.05,21.900000000000002,0)" xlink:href="#ab"/></g><g id="P"><use transform="matrix(0.05,0,0,0.05,0,0)" xlink:href="#ae"/><use transform="matrix(0.05,0,0,0.05,9,0)" xlink:href="#ab"/><use transform="matrix(0.05,0,0,0.05,19,0)" xlink:href="#ac"/><use transform="matrix(0.05,0,0,0.05,29,0)" xlink:href="#ad"/><use transform="matrix(0.05,0,0,0.05,34.95,0)" xlink:href="#Z"/><use transform="matrix(0.05,0,0,0.05,39.95,0)" xlink:href="#Y"/><use transform="matrix(0.05,0,0,0.05,49.95,0)" xlink:href="#ae"/><use transform="matrix(0.05,0,0,0.05,58.95,0)" xlink:href="#Z"/></g><g id="Q"><use transform="matrix(0.05,0,0,0.05,0,0)" xlink:href="#aj"/><use transform="matrix(0.05,0,0,0.05,10,0)" xlink:href="#an"/><use transform="matrix(0.05,0,0,0.05,13.949999999999998,0)" xlink:href="#ae"/><use transform="matrix(0.05,0,0,0.05,22.95,0)" xlink:href="#Z"/><use transform="matrix(0.05,0,0,0.05,27.950000000000003,0)" xlink:href="#ag"/><use transform="matrix(0.05,0,0,0.05,37.95,0)" xlink:href="#ai"/><use transform="matrix(0.05,0,0,0.05,47.95,0)" xlink:href="#at"/><use transform="matrix(0.05,0,0,0.05,56.95,0)" xlink:href="#Y"/><use transform="matrix(0.05,0,0,0.05,66.95,0)" xlink:href="#aq"/></g><path d="M127-220V0H93v-220H8v-28h204v28h-85" id="aD"/><g id="R"><use transform="matrix(0.05,0,0,0.05,0,0)" xlink:href="#aD"/><use transform="matrix(0.05,0,0,0.05,10.3,0)" xlink:href="#ad"/><use transform="matrix(0.05,0,0,0.05,16.25,0)" xlink:href="#al"/><use transform="matrix(0.05,0,0,0.05,26.25,0)" xlink:href="#Y"/></g><g id="S"><use transform="matrix(0.05,0,0,0.05,0,0)" xlink:href="#av"/><use transform="matrix(0.05,0,0,0.05,12.950000000000001,0)" xlink:href="#ac"/></g><g id="T"><use transform="matrix(0.05,0,0,0.05,0,0)" xlink:href="#ad"/><use transform="matrix(0.05,0,0,0.05,5.95,0)" xlink:href="#Y"/><use transform="matrix(0.05,0,0,0.05,15.949999999999998,0)" xlink:href="#ae"/><use transform="matrix(0.05,0,0,0.05,24.95,0)" xlink:href="#al"/><use transform="matrix(0.05,0,0,0.05,34.95,0)" xlink:href="#ap"/><use transform="matrix(0.05,0,0,0.05,38.900000000000006,0)" xlink:href="#Z"/></g><g id="U"><use transform="matrix(0.05,0,0,0.05,0,0)" xlink:href="#aB"/><use transform="matrix(0.05,0,0,0.05,12.950000000000001,0)" xlink:href="#an"/><use transform="matrix(0.05,0,0,0.05,16.900000000000002,0)" xlink:href="#ap"/><use transform="matrix(0.05,0,0,0.05,20.85,0)" xlink:href="#ap"/></g><path d="M115-194c53 0 69 39 70 98 0 66-23 100-70 100C84 3 66-7 56-30L54 0H23l1-261h32v101c10-23 28-34 59-34zm-8 174c40 0 45-34 45-75 0-40-5-75-45-74-42 0-51 32-51 76 0 43 10 73 51 73" id="aE"/><g id="V"><use transform="matrix(0.05,0,0,0.05,0,0)" xlink:href="#aE"/><use transform="matrix(0.05,0,0,0.05,10,0)" xlink:href="#Y"/></g><g id="W"><use transform="matrix(0.05,0,0,0.05,0,0)" xlink:href="#ad"/><use transform="matrix(0.05,0,0,0.05,5.95,0)" xlink:href="#Y"/><use transform="matrix(0.05,0,0,0.05,15.949999999999998,0)" xlink:href="#Z"/><use transform="matrix(0.05,0,0,0.05,20.95,0)" xlink:href="#al"/><use transform="matrix(0.05,0,0,0.05,30.950000000000003,0)" xlink:href="#ad"/><use transform="matrix(0.05,0,0,0.05,36.9,0)" xlink:href="#ai"/><use transform="matrix(0.05,0,0,0.05,46.9,0)" xlink:href="#Y"/><use transform="matrix(0.05,0,0,0.05,56.900000000000006,0)" xlink:href="#aj"/></g></defs></g></svg>