<svg xmlns="http://www.w3.org/2000/svg" xmlns:xlink="http://www.w3.org/1999/xlink" xmlns:lucid="lucid" width="1758.72" height="1720"><g transform="translate(0 0)" lucid:page-tab-id="0_0"><path d="M0 0h1870.4v2582.4H0z" fill="#fff"/><path d="M1011.05 1660c0 22.1-17.9 40-40 40s-40-17.9-40-40 17.9-40 40-40 40 17.9 40 40z" stroke="#000" stroke-width="2" fill="#ff8f80"/><use xlink:href="#a" transform="matrix(1,0,0,1,936.0508058232087,1625) translate(19 38.4625)"/><path d="M849.72 520h268l-32 120h-268z" stroke="#000" stroke-width="2" fill="#fff"/><use xlink:href="#b" transform="matrix(1,0,0,1,822.7174724898753,525) translate(85.58 59.0875)"/><use xlink:href="#c" transform="matrix(1,0,0,1,822.7174724898753,525) translate(140.48 59.0875)"/><use xlink:href="#d" transform="matrix(1,0,0,1,822.7174724898753,525) translate(160.48 59.0875)"/><path d="M849.72 700h268l-32 120h-268z" stroke="#000" stroke-width="2" fill="#fff"/><use xlink:href="#e" transform="matrix(1,0,0,1,822.7174724898753,705) translate(44.605 59.0875)"/><use xlink:href="#f" transform="matrix(1,0,0,1,822.7174724898753,705) translate(68.555 59.0875)"/><use xlink:href="#g" transform="matrix(1,0,0,1,822.7174724898753,705) translate(113.505 59.0875)"/><use xlink:href="#h" transform="matrix(1,0,0,1,822.7174724898753,705) translate(222.455 59.0875)"/><path d="M967.72 642v38.5" stroke="#000" stroke-width="2" fill="none"/><path d="M968.72 642.03h-2V641h2z"/><path d="M967.72 695.76l-4.64-14.26h9.27z" stroke="#000" stroke-width="2"/><path d="M967.72 860l83.33 62.5-83.33 62.5-83.34-62.5z" stroke="#000" stroke-width="2" fill="#fff"/><use xlink:href="#i" transform="matrix(1,0,0,1,889.3841391565419,865) translate(51.779999999999994 61.525)"/><use xlink:href="#j" transform="matrix(1,0,0,1,889.3841391565419,865) translate(79.72999999999999 61.525)"/><use xlink:href="#k" transform="matrix(1,0,0,1,889.3841391565419,865) translate(95.22999999999999 61.525)"/><path d="M967.72 822v18.25" stroke="#000" stroke-width="2" fill="none"/><path d="M968.72 822.03h-2V821h2z"/><path d="M967.72 855.5l-4.64-14.25h9.27z" stroke="#000" stroke-width="2"/><path d="M968.72 1001.7h-2v-14.45h2z"/><path d="M968.72 987.28h-2v-1.78l1 .75 1-.75zM967.72 1035.5l-3.97-12.2h7.94z"/><path d="M967.72 1038.75l-5.02-15.45h2.1l2.92 8.98 2.9-8.98h2.12z"/><use xlink:href="#l" transform="matrix(1,0,0,1,948.7424724898752,1001.6999998732001) translate(0 14.4)"/><path d="M967.72 1040l80 60-80 60-80-60z" stroke="#000" stroke-width="2" fill="#fff"/><use xlink:href="#i" transform="matrix(1,0,0,1,892.7174724898753,1045) translate(48.279999999999994 59.0875)"/><use xlink:href="#j" transform="matrix(1,0,0,1,892.7174724898753,1045) translate(76.22999999999999 59.0875)"/><use xlink:href="#m" transform="matrix(1,0,0,1,892.7174724898753,1045) translate(91.72999999999999 59.0875)"/><path d="M968.72 1208.05h-2v-3.35h2zm0-24.95h-2v-20.85h2z"/><path d="M968.72 1162.28h-2v-1.78l1 .75 1-.75zM967.72 1223.3l-4.64-14.25h9.27z"/><path d="M967.72 1226.55l-6-18.5h12zm-3.26-16.5l3.26 10.03 3.26-10.03z"/><use xlink:href="#l" transform="matrix(1,0,0,1,948.7424724898752,1183.1000000000001) translate(0 14.4)"/><path d="M967.72 1227.8l80 60-80 60-80-60z" stroke="#000" stroke-width="2" fill="#fff"/><use xlink:href="#i" transform="matrix(1,0,0,1,892.7174724898753,1232.8) translate(48.279999999999994 59.0875)"/><use xlink:href="#j" transform="matrix(1,0,0,1,892.7174724898753,1232.8) translate(76.22999999999999 59.0875)"/><use xlink:href="#n" transform="matrix(1,0,0,1,892.7174724898753,1232.8) translate(91.72999999999999 59.0875)"/><path d="M968.72 1363.1h-2v-13.05h2z"/><path d="M968.72 1350.08h-2v-1.78l1 .75 1-.75zM971.05 1395.5l-3.5-10.8h7z"/><path d="M971.05 1398.75l-4.56-14.05h2.1l2.45 7.58 2.46-7.58h2.12z"/><use xlink:href="#l" transform="matrix(1,0,0,1,950.4091391565419,1363.1000000000001) translate(0 14.4)"/><path d="M971.05 1400l80 60-80 60-80-60z" stroke="#000" stroke-width="2" fill="#fff"/><use xlink:href="#i" transform="matrix(1,0,0,1,896.0508058232087,1405) translate(48.279999999999994 59.0875)"/><use xlink:href="#j" transform="matrix(1,0,0,1,896.0508058232087,1405) translate(76.22999999999999 59.0875)"/><use xlink:href="#o" transform="matrix(1,0,0,1,896.0508058232087,1405) translate(91.72999999999999 59.0875)"/><path d="M972.05 1600.5h-2v-19.58h2zm0-41.18h-2v-37.07h2z"/><path d="M972.05 1522.28h-2v-1.78l1 .75 1-.75zM971.05 1615.76l-4.63-14.26h9.27z"/><path d="M971.05 1619l-6-18.5h12zm-3.26-16.5l3.25 10.03 3.26-10.03z"/><use xlink:href="#p" transform="matrix(1,0,0,1,955.5758058232087,1559.3246881401558) translate(0 14.4)"/><path d="M179.72 1400h268l-32 120h-268z" stroke="#000" stroke-width="2" fill="#fff"/><use xlink:href="#b" transform="matrix(1,0,0,1,152.71747248987526,1405) translate(46.13 59.0875)"/><use xlink:href="#c" transform="matrix(1,0,0,1,152.71747248987526,1405) translate(101.03 59.0875)"/><use xlink:href="#q" transform="matrix(1,0,0,1,152.71747248987526,1405) translate(121.03 59.0875)"/><use xlink:href="#r" transform="matrix(1,0,0,1,152.71747248987526,1405) translate(144.98000000000002 59.0875)"/><path d="M642.1 1461H451.24v-2H642.1zm246.28 0H680.04v-2h208.34z"/><path d="M889.38 1460l1.34 1h-2.36v-2h2.36zM450.25 1464.64L436 1460l14.25-4.64z"/><path d="M451.25 1466l-18.5-6 18.5-6zm-12.03-6l10.03 3.26v-6.52z"/><use xlink:href="#l" transform="matrix(1,0,0,1,642.0932783130839,1449.2) translate(0 14.4)"/><path d="M814.18 581h-690.5v878h38v2h-40V579h692.5z"/><path d="M162.42 1461h-.76v-2h1.3zM829.45 580l-14.27 4.64v-9.28z"/><path d="M832.68 580l-18.5 6v-12zm-16.5 3.26L826.2 580l-10.02-3.26zM881.72 921.5v2H781.2v-2zm-214.5-.5v-2h83.02v2z"/><path d="M882.72 922.5l1.33 1h-2.36v-2h2.35zM666.22 924.64L651.95 920l14.27-4.64z"/><path d="M667.22 926l-18.5-6 18.5-6zm-12.03-6l10.02 3.26v-6.52z"/><use xlink:href="#p" transform="matrix(1,0,0,1,750.2424724920086,910.45) translate(0 14.4)"/><path d="M387.72 860h260v120h-260z" stroke="#000" stroke-width="2" fill="#fff"/><use xlink:href="#s" transform="matrix(1,0,0,1,392.71747248987526,865.0000000000001) translate(0.8000000000000114 48.775)"/><use xlink:href="#t" transform="matrix(1,0,0,1,392.71747248987526,865.0000000000001) translate(40.40000000000001 48.775)"/><use xlink:href="#u" transform="matrix(1,0,0,1,392.71747248987526,865.0000000000001) translate(119.35000000000002 48.775)"/><use xlink:href="#v" transform="matrix(1,0,0,1,392.71747248987526,865.0000000000001) translate(145.3 48.775)"/><use xlink:href="#w" transform="matrix(1,0,0,1,392.71747248987526,865.0000000000001) translate(245.25 48.775)"/><use xlink:href="#x" transform="matrix(1,0,0,1,392.71747248987526,865.0000000000001) translate(86.525 70.375)"/><path d="M385.72 920H141.18" stroke="#000" stroke-width="2" fill="none"/><path d="M386.72 921h-1.03v-2h1.02z"/><path d="M125.92 920l14.26-4.64v9.28z" stroke="#000" stroke-width="2"/><path d="M1259.72 740h288l-32 120h-288z" stroke="#000" stroke-width="2" fill="#fff"/><use xlink:href="#y" transform="matrix(1,0,0,1,1232.7174724898753,745) translate(29.279999999999983 38.4625)"/><use xlink:href="#z" transform="matrix(1,0,0,1,1232.7174724898753,745) translate(40.22999999999998 38.4625)"/><use xlink:href="#c" transform="matrix(1,0,0,1,1232.7174724898753,745) translate(95.12999999999998 38.4625)"/><use xlink:href="#A" transform="matrix(1,0,0,1,1232.7174724898753,745) translate(115.12999999999998 38.4625)"/><use xlink:href="#B" transform="matrix(1,0,0,1,1232.7174724898753,745) translate(140.13 38.4625)"/><use xlink:href="#C" transform="matrix(1,0,0,1,1232.7174724898753,745) translate(177.03 38.4625)"/><use xlink:href="#D" transform="matrix(1,0,0,1,1232.7174724898753,745) translate(202.03 38.4625)"/><use xlink:href="#E" transform="matrix(1,0,0,1,1232.7174724898753,745) translate(234.93 38.4625)"/><use xlink:href="#F" transform="matrix(1,0,0,1,1232.7174724898753,745) translate(130.03 60.0625)"/><use xlink:href="#G" transform="matrix(1,0,0,1,1232.7174724898753,745) translate(25.104999999999997 81.66250000000001)"/><use xlink:href="#H" transform="matrix(1,0,0,1,1232.7174724898753,745) translate(36.055 81.66250000000001)"/><use xlink:href="#v" transform="matrix(1,0,0,1,1232.7174724898753,745) translate(63.055 81.66250000000001)"/><use xlink:href="#I" transform="matrix(1,0,0,1,1232.7174724898753,745) translate(163.005 81.66250000000001)"/><use xlink:href="#J" transform="matrix(1,0,0,1,1232.7174724898753,745) translate(192.955 81.66250000000001)"/><use xlink:href="#K" transform="matrix(1,0,0,1,1232.7174724898753,745) translate(232.905 81.66250000000001)"/><path d="M1147.03 1101h-96.65v-2h94.65V960.8h2zm77.15-300h-77.15v138.2h-2V799h79.15z"/><path d="M1050.4 1101h-2.35l1.33-1-1.33-1h2.36zM1239.45 800l-14.27 4.64v-9.28z"/><path d="M1242.68 800l-18.5 6v-12zm-16.5 3.26l10.03-3.26-10.02-3.26z"/><use xlink:href="#p" transform="matrix(1,0,0,1,1130.5583333333334,939.2) translate(0 14.4)"/><path d="M1387.72 862v18h-1.6v.5" stroke="#000" stroke-width="2" fill="none"/><path d="M1388.72 862.03h-2V861h2z"/><path d="M1386.1 895.76l-4.62-14.26h9.27z" stroke="#000" stroke-width="2"/><path d="M1299.93 900h238.66l-21.34 80H1278.6z" stroke="#000" stroke-width="2" fill="#fff"/><use xlink:href="#e" transform="matrix(1,0,0,1,1283.5927243592405,905.0000000000001) translate(53.07999999999999 38.4625)"/><use xlink:href="#f" transform="matrix(1,0,0,1,1283.5927243592405,905.0000000000001) translate(77.03 38.4625)"/><use xlink:href="#J" transform="matrix(1,0,0,1,1283.5927243592405,905.0000000000001) translate(121.97999999999999 38.4625)"/><use xlink:href="#L" transform="matrix(1,0,0,1,1283.5927243592405,905.0000000000001) translate(161.93 38.4625)"/><path d="M1408.6 982v18h-1.76v.5" stroke="#000" stroke-width="2" fill="none"/><path d="M1409.6 982.03h-2V981h2z"/><path d="M1406.84 1015.76l-4.64-14.26h9.27z" stroke="#000" stroke-width="2"/><path d="M1322.78 1020h238.66l-21.33 80h-238.66z" stroke="#000" stroke-width="2" fill="#fff"/><use xlink:href="#M" transform="matrix(1,0,0,1,1306.4436180708874,1025.0000000000002) translate(12.579999999999993 38.4625)"/><use xlink:href="#v" transform="matrix(1,0,0,1,1306.4436180708874,1025.0000000000002) translate(39.57999999999999 38.4625)"/><use xlink:href="#I" transform="matrix(1,0,0,1,1306.4436180708874,1025.0000000000002) translate(139.53 38.4625)"/><use xlink:href="#N" transform="matrix(1,0,0,1,1306.4436180708874,1025.0000000000002) translate(169.48000000000002 38.4625)"/><use xlink:href="#L" transform="matrix(1,0,0,1,1306.4436180708874,1025.0000000000002) translate(202.43 38.4625)"/><path d="M1310.63 1140h238.67l-21.33 80H1289.3z" stroke="#000" stroke-width="2" fill="#fff"/><use xlink:href="#e" transform="matrix(1,0,0,1,1294.3008533754999,1145.0000000000005) translate(56.57999999999999 38.4625)"/><use xlink:href="#f" transform="matrix(1,0,0,1,1294.3008533754999,1145.0000000000005) translate(80.53 38.4625)"/><use xlink:href="#N" transform="matrix(1,0,0,1,1294.3008533754999,1145.0000000000005) translate(125.47999999999999 38.4625)"/><use xlink:href="#L" transform="matrix(1,0,0,1,1294.3008533754999,1145.0000000000005) translate(158.43 38.4625)"/><path d="M1417.32 1102v18h-.55v.5" stroke="#000" stroke-width="2" fill="none"/><path d="M1418.32 1102.03h-2V1101h2z"/><path d="M1416.77 1135.76l-4.64-14.26h9.27z" stroke="#000" stroke-width="2"/><path d="M1419.3 1222v38.5" stroke="#000" stroke-width="2" fill="none"/><path d="M1420.3 1222.03h-2V1221h2z"/><path d="M1419.3 1275.76l-4.63-14.26h9.27z" stroke="#000" stroke-width="2"/><path d="M1309.3 1280h220v80h-220z" stroke="#000" stroke-width="2" fill="#fff"/><g><use xlink:href="#O" transform="matrix(1,0,0,1,1314.3008533754999,1285) translate(27.57499999999999 16.5875)"/><use xlink:href="#P" transform="matrix(1,0,0,1,1314.3008533754999,1285) translate(69.475 16.5875)"/><use xlink:href="#Q" transform="matrix(1,0,0,1,1314.3008533754999,1285) translate(133.425 16.5875)"/><use xlink:href="#R" transform="matrix(1,0,0,1,1314.3008533754999,1285) translate(7.125 38.1875)"/><use xlink:href="#S" transform="matrix(1,0,0,1,1314.3008533754999,1285) translate(64.975 38.1875)"/><use xlink:href="#T" transform="matrix(1,0,0,1,1314.3008533754999,1285) translate(89.975 38.1875)"/><use xlink:href="#U" transform="matrix(1,0,0,1,1314.3008533754999,1285) translate(118.975 38.1875)"/><use xlink:href="#V" transform="matrix(1,0,0,1,1314.3008533754999,1285) translate(69.525 59.7875)"/></g><path d="M1419.3 1362v28h-.22v10.5" stroke="#000" stroke-width="2" fill="none"/><path d="M1420.3 1362.03h-2V1361h2z"/><path d="M1419.08 1415.76l-4.63-14.26h9.27z" stroke="#000" stroke-width="2"/><path d="M1349.93 1420h188.66l-21.34 80H1328.6z" stroke="#000" stroke-width="2" fill="#fff"/><g><use xlink:href="#b" transform="matrix(1,0,0,1,1333.5927243592405,1425) translate(28.604999999999997 27.525)"/><use xlink:href="#c" transform="matrix(1,0,0,1,1333.5927243592405,1425) translate(83.505 27.525)"/><use xlink:href="#W" transform="matrix(1,0,0,1,1333.5927243592405,1425) translate(103.505 27.525)"/><use xlink:href="#X" transform="matrix(1,0,0,1,1333.5927243592405,1425) translate(29.18 49.125)"/><use xlink:href="#Y" transform="matrix(1,0,0,1,1333.5927243592405,1425) translate(104.48 49.125)"/></g><path d="M1748.72 1461h-218.76v-2h216.76V581h-625.47v-2h627.47z"/><path d="M1530 1461h-1.3l.53-2h.76zM1120.25 584.64L1106 580l14.25-4.64z"/><path d="M1121.25 586l-18.5-6 18.5-6zm-12.03-6l10.03 3.26v-6.52zM754.4 1288.8h-82.18v-2h82.2zm130.65 0h-99.7v-2h99.7z"/><path d="M886.05 1287.8l1.33 1h-2.35v-2h2.35zM671.22 1292.44l-14.27-4.64 14.27-4.64z"/><path d="M672.22 1293.8l-18.5-6 18.5-6zm-12.03-6l10.02 3.26v-6.52z"/><g><use xlink:href="#p" transform="matrix(1,0,0,1,754.409139156542,1277) translate(0 14.4)"/></g><path d="M382.72 1227.8h270v120h-270z" stroke="#000" stroke-width="2" fill="#fff"/><g><use xlink:href="#Z" transform="matrix(1,0,0,1,387.71747248987526,1232.8) translate(2.6500000000000057 48.775)"/><use xlink:href="#t" transform="matrix(1,0,0,1,387.71747248987526,1232.8) translate(43.650000000000006 48.775)"/><use xlink:href="#aa" transform="matrix(1,0,0,1,387.71747248987526,1232.8) translate(122.60000000000001 48.775)"/><use xlink:href="#ab" transform="matrix(1,0,0,1,387.71747248987526,1232.8) translate(156.6 48.775)"/><use xlink:href="#ac" transform="matrix(1,0,0,1,387.71747248987526,1232.8) translate(204.5 48.775)"/><use xlink:href="#ad" transform="matrix(1,0,0,1,387.71747248987526,1232.8) translate(6.724999999999994 70.375)"/><use xlink:href="#ae" transform="matrix(1,0,0,1,387.71747248987526,1232.8) translate(82.675 70.375)"/><use xlink:href="#af" transform="matrix(1,0,0,1,387.71747248987526,1232.8) translate(172.975 70.375)"/></g><path d="M380.72 1287.8H141.2" stroke="#000" stroke-width="2" fill="none"/><path d="M381.72 1288.8h-1.03v-2h1.02z"/><path d="M125.92 1287.8l14.27-4.64v9.28z" stroke="#000" stroke-width="2"/><path d="M1007.72 60c0 22.1-17.9 40-40 40s-40-17.9-40-40 17.9-40 40-40 40 17.9 40 40z" stroke="#000" stroke-width="2" fill="#a3d977"/><g><use xlink:href="#ag" transform="matrix(1,0,0,1,932.7174724898753,25) translate(17.525 38.4625)"/></g><path d="M837.84 140h271.05v120H837.83z" stroke="#000" stroke-width="2" fill="#fff"/><g><use xlink:href="#ah" transform="matrix(1,0,0,1,842.8389613662184,145) translate(37.575 38.4625)"/><use xlink:href="#ai" transform="matrix(1,0,0,1,842.8389613662184,145) translate(98.575 38.4625)"/><use xlink:href="#c" transform="matrix(1,0,0,1,842.8389613662184,145) translate(169.52499999999998 38.4625)"/><use xlink:href="#aj" transform="matrix(1,0,0,1,842.8389613662184,145) translate(189.52499999999998 38.4625)"/><use xlink:href="#ak" transform="matrix(1,0,0,1,842.8389613662184,145) translate(7.050000000000011 60.0625)"/><use xlink:href="#B" transform="matrix(1,0,0,1,842.8389613662184,145) translate(115.90000000000002 60.0625)"/><use xlink:href="#al" transform="matrix(1,0,0,1,842.8389613662184,145) translate(152.8 60.0625)"/><use xlink:href="#am" transform="matrix(1,0,0,1,842.8389613662184,145) translate(210 60.0625)"/><use xlink:href="#C" transform="matrix(1,0,0,1,842.8389613662184,145) translate(38.974999999999994 81.66250000000001)"/><use xlink:href="#D" transform="matrix(1,0,0,1,842.8389613662184,145) translate(63.974999999999994 81.66250000000001)"/><use xlink:href="#an" transform="matrix(1,0,0,1,842.8389613662184,145) translate(96.875 81.66250000000001)"/></g><path d="M967.72 102v18.5" stroke="#000" stroke-width="2" fill="none"/><path d="M967.7 101l1.02-.03v1.06h-2v-1.1z"/><path d="M967.72 135.76l-4.64-14.26h9.27z" stroke="#000" stroke-width="2"/><path d="M837.84 330h271.05v120H837.83z" stroke="#000" stroke-width="2" fill="#fff"/><g><use xlink:href="#ao" transform="matrix(1,0,0,1,842.8389613662184,335) translate(3.625 24.7125)"/><use xlink:href="#ap" transform="matrix(1,0,0,1,842.8389613662184,335) translate(59.625 24.7125)"/><use xlink:href="#aq" transform="matrix(1,0,0,1,842.8389613662184,335) translate(84.625 24.7125)"/><use xlink:href="#ar" transform="matrix(1,0,0,1,842.8389613662184,335) translate(199.425 24.7125)"/><use xlink:href="#R" transform="matrix(1,0,0,1,842.8389613662184,335) translate(15.150000000000006 46.3125)"/><use xlink:href="#S" transform="matrix(1,0,0,1,842.8389613662184,335) translate(73 46.3125)"/><use xlink:href="#as" transform="matrix(1,0,0,1,842.8389613662184,335) translate(98 46.3125)"/><use xlink:href="#at" transform="matrix(1,0,0,1,842.8389613662184,335) translate(180.9 46.3125)"/><use xlink:href="#aa" transform="matrix(1,0,0,1,842.8389613662184,335) translate(14.650000000000006 67.91250000000001)"/><use xlink:href="#au" transform="matrix(1,0,0,1,842.8389613662184,335) translate(48.650000000000006 67.91250000000001)"/><use xlink:href="#av" transform="matrix(1,0,0,1,842.8389613662184,335) translate(137.55 67.91250000000001)"/><use xlink:href="#ab" transform="matrix(1,0,0,1,842.8389613662184,335) translate(58.150000000000006 89.51250000000002)"/><use xlink:href="#R" transform="matrix(1,0,0,1,842.8389613662184,335) translate(106.05000000000001 89.51250000000002)"/><use xlink:href="#aw" transform="matrix(1,0,0,1,842.8389613662184,335) translate(163.9 89.51250000000002)"/></g><path d="M973.36 262v48.5" stroke="#000" stroke-width="2" fill="none"/><path d="M974.36 262.03h-2V261h2z"/><path d="M973.36 325.76l-4.63-14.26H978z" stroke="#000" stroke-width="2"/><path d="M973.36 452v48.5" stroke="#000" stroke-width="2" fill="none"/><path d="M974.36 452.03h-2V451h2z"/><path d="M973.36 515.76l-4.63-14.26H978z" stroke="#000" stroke-width="2"/><path d="M20 20h280v120H20z" stroke="#000" stroke-width="2" fill="#b2d6ef"/><g><use xlink:href="#ax" transform="matrix(1,0,0,1,25,25) translate(70.6 59.0875)"/><use xlink:href="#ay" transform="matrix(1,0,0,1,25,25) translate(129.55 59.0875)"/></g><defs><path d="M30 0v-248h187v28H63v79h144v27H63v87h162V0H30" id="az"/><path d="M117-194c89-4 53 116 60 194h-32v-121c0-31-8-49-39-48C34-167 62-67 57 0H25l-1-190h30c1 10-1 24 2 32 11-22 29-35 61-36" id="aA"/><path d="M85-194c31 0 48 13 60 33l-1-100h32l1 261h-30c-2-10 0-23-3-31C134-8 116 4 85 4 32 4 16-35 15-94c0-66 23-100 70-100zm9 24c-40 0-46 34-46 75 0 40 6 74 45 74 42 0 51-32 51-76 0-42-9-74-50-73" id="aB"/><g id="a"><use transform="matrix(0.05,0,0,0.05,0,0)" xlink:href="#az"/><use transform="matrix(0.05,0,0,0.05,12,0)" xlink:href="#aA"/><use transform="matrix(0.05,0,0,0.05,22,0)" xlink:href="#aB"/></g><path d="M185-189c-5-48-123-54-124 2 14 75 158 14 163 119 3 78-121 87-175 55-17-10-28-26-33-46l33-7c5 56 141 63 141-1 0-78-155-14-162-118-5-82 145-84 179-34 5 7 8 16 11 25" id="aC"/><path d="M143 0L79-87 56-68V0H24v-261h32v163l83-92h37l-77 82L181 0h-38" id="aD"/><path d="M114-163C36-179 61-72 57 0H25l-1-190h30c1 12-1 29 2 39 6-27 23-49 58-41v29" id="aE"/><path d="M24-231v-30h32v30H24zM24 0v-190h32V0H24" id="aF"/><path d="M108 0H70L1-190h34L89-25l56-165h34" id="aG"/><path d="M141-36C126-15 110 5 73 4 37 3 15-17 15-53c-1-64 63-63 125-63 3-35-9-54-41-54-24 1-41 7-42 31l-33-3c5-37 33-52 76-52 45 0 72 20 72 64v82c-1 20 7 32 28 27v20c-31 9-61-2-59-35zM48-53c0 20 12 33 32 33 41-3 63-29 60-74-43 2-92-5-92 41" id="aH"/><g id="b"><use transform="matrix(0.05,0,0,0.05,0,0)" xlink:href="#aC"/><use transform="matrix(0.05,0,0,0.05,12,0)" xlink:href="#aD"/><use transform="matrix(0.05,0,0,0.05,21,0)" xlink:href="#aE"/><use transform="matrix(0.05,0,0,0.05,26.950000000000003,0)" xlink:href="#aF"/><use transform="matrix(0.05,0,0,0.05,30.899999999999995,0)" xlink:href="#aG"/><use transform="matrix(0.05,0,0,0.05,39.9,0)" xlink:href="#aH"/></g><path d="M84 4C-5 8 30-112 23-190h32v120c0 31 7 50 39 49 72-2 45-101 50-169h31l1 190h-30c-1-10 1-25-2-33-11 22-28 36-60 37" id="aI"/><path d="M59-47c-2 24 18 29 38 22v24C64 9 27 4 27-40v-127H5v-23h24l9-43h21v43h35v23H59v120" id="aJ"/><g id="c"><use transform="matrix(0.05,0,0,0.05,0,0)" xlink:href="#aI"/><use transform="matrix(0.05,0,0,0.05,10,0)" xlink:href="#aJ"/></g><path d="M210-169c-67 3-38 105-44 169h-31v-121c0-29-5-50-35-48C34-165 62-65 56 0H25l-1-190h30c1 10-1 24 2 32 10-44 99-50 107 0 11-21 27-35 58-36 85-2 47 119 55 194h-31v-121c0-29-5-49-35-48" id="aK"/><path d="M100-194c63 0 86 42 84 106H49c0 40 14 67 53 68 26 1 43-12 49-29l28 8c-11 28-37 45-77 45C44 4 14-33 15-96c1-61 26-98 85-98zm52 81c6-60-76-77-97-28-3 7-6 17-6 28h103" id="aL"/><path d="M179-190L93 31C79 59 56 82 12 73V49c39 6 53-20 64-50L1-190h34L92-34l54-156h33" id="aM"/><g id="d"><use transform="matrix(0.05,0,0,0.05,0,0)" xlink:href="#aK"/><use transform="matrix(0.05,0,0,0.05,14.950000000000001,0)" xlink:href="#aL"/><use transform="matrix(0.05,0,0,0.05,24.950000000000003,0)" xlink:href="#aA"/><use transform="matrix(0.05,0,0,0.05,34.95,0)" xlink:href="#aM"/></g><path d="M127-220V0H93v-220H8v-28h204v28h-85" id="aN"/><g id="e"><use transform="matrix(0.05,0,0,0.05,0,0)" xlink:href="#aN"/><use transform="matrix(0.05,0,0,0.05,8.950000000000001,0)" xlink:href="#aH"/></g><path d="M100-194c62-1 85 37 85 99 1 63-27 99-86 99S16-35 15-95c0-66 28-99 85-99zM99-20c44 1 53-31 53-75 0-43-8-75-51-75s-53 32-53 75 10 74 51 75" id="aO"/><g id="f"><use transform="matrix(0.05,0,0,0.05,0,0)" xlink:href="#aL"/><use transform="matrix(0.05,0,0,0.05,10,0)" xlink:href="#aK"/><use transform="matrix(0.05,0,0,0.05,24.950000000000003,0)" xlink:href="#aO"/><use transform="matrix(0.05,0,0,0.05,34.95,0)" xlink:href="#aJ"/></g><path d="M141-36C126-15 110 5 73 4 37 3 15-17 15-53c-1-64 63-63 125-63 3-35-9-54-41-54-24 1-41 7-42 31l-33-3c5-37 33-52 76-52 45 0 72 20 72 64v82c-1 20 7 32 28 27v20c-31 9-61-2-59-35zM48-53c0 20 12 33 32 33 41-3 63-29 60-74-43 2-92-5-92 41zm70-161v-33h29v33h-29zm-69 0v-33h29v33H49" id="aP"/><path d="M135-143c-3-34-86-38-87 0 15 53 115 12 119 90S17 21 10-45l28-5c4 36 97 45 98 0-10-56-113-15-118-90-4-57 82-63 122-42 12 7 21 19 24 35" id="aQ"/><g id="g"><use transform="matrix(0.05,0,0,0.05,0,0)" xlink:href="#aH"/><use transform="matrix(0.05,0,0,0.05,10,0)" xlink:href="#aA"/><use transform="matrix(0.05,0,0,0.05,20,0)" xlink:href="#aG"/><use transform="matrix(0.05,0,0,0.05,29,0)" xlink:href="#aP"/><use transform="matrix(0.05,0,0,0.05,39,0)" xlink:href="#aA"/><use transform="matrix(0.05,0,0,0.05,49,0)" xlink:href="#aB"/><use transform="matrix(0.05,0,0,0.05,59,0)" xlink:href="#aH"/><use transform="matrix(0.05,0,0,0.05,69,0)" xlink:href="#aE"/><use transform="matrix(0.05,0,0,0.05,74.95,0)" xlink:href="#aL"/><use transform="matrix(0.05,0,0,0.05,84.95,0)" xlink:href="#aA"/><use transform="matrix(0.05,0,0,0.05,94.95,0)" xlink:href="#aQ"/></g><path d="M24 0v-261h32V0H24" id="aR"/><g id="h"><use transform="matrix(0.05,0,0,0.05,0,0)" xlink:href="#aG"/><use transform="matrix(0.05,0,0,0.05,9,0)" xlink:href="#aH"/><use transform="matrix(0.05,0,0,0.05,19,0)" xlink:href="#aR"/></g><g id="i"><use transform="matrix(0.05,0,0,0.05,0,0)" xlink:href="#aG"/><use transform="matrix(0.05,0,0,0.05,9,0)" xlink:href="#aH"/><use transform="matrix(0.05,0,0,0.05,19,0)" xlink:href="#aR"/></g><path d="M18-150v-26h174v26H18zm0 90v-26h174v26H18" id="aS"/><use transform="matrix(0.05,0,0,0.05,0,0)" xlink:href="#aS" id="j"/><use transform="matrix(0.05,0,0,0.05,0,0)" xlink:href="#aG" id="k"/><path d="M101-234c-31-9-42 10-38 44h38v23H63V0H32v-167H5v-23h27c-7-52 17-82 69-68v24" id="aT"/><g id="l"><use transform="matrix(0.05,0,0,0.05,0,0)" xlink:href="#aT"/><use transform="matrix(0.05,0,0,0.05,5,0)" xlink:href="#aH"/><use transform="matrix(0.05,0,0,0.05,15,0)" xlink:href="#aR"/><use transform="matrix(0.05,0,0,0.05,18.95,0)" xlink:href="#aQ"/><use transform="matrix(0.05,0,0,0.05,27.950000000000003,0)" xlink:href="#aL"/></g><path d="M106-169C34-169 62-67 57 0H25v-261h32l-1 103c12-21 28-36 61-36 89 0 53 116 60 194h-32v-121c2-32-8-49-39-48" id="aU"/><use transform="matrix(0.05,0,0,0.05,0,0)" xlink:href="#aU" id="m"/><path d="M115-194c53 0 69 39 70 98 0 66-23 100-70 100C84 3 66-7 56-30L54 0H23l1-261h32v101c10-23 28-34 59-34zm-8 174c40 0 45-34 45-75 0-40-5-75-45-74-42 0-51 32-51 76 0 43 10 73 51 73" id="aV"/><use transform="matrix(0.05,0,0,0.05,0,0)" xlink:href="#aV" id="n"/><use transform="matrix(0.05,0,0,0.05,0,0)" xlink:href="#aL" id="o"/><g id="p"><use transform="matrix(0.05,0,0,0.05,0,0)" xlink:href="#aJ"/><use transform="matrix(0.05,0,0,0.05,5,0)" xlink:href="#aE"/><use transform="matrix(0.05,0,0,0.05,10.95,0)" xlink:href="#aI"/><use transform="matrix(0.05,0,0,0.05,20.95,0)" xlink:href="#aL"/></g><g id="q"><use transform="matrix(0.05,0,0,0.05,0,0)" xlink:href="#aT"/><use transform="matrix(0.05,0,0,0.05,5,0)" xlink:href="#aL"/><use transform="matrix(0.05,0,0,0.05,15,0)" xlink:href="#aR"/></g><g id="r"><use transform="matrix(0.05,0,0,0.05,0,0)" xlink:href="#aK"/><use transform="matrix(0.05,0,0,0.05,14.950000000000001,0)" xlink:href="#aL"/><use transform="matrix(0.05,0,0,0.05,24.950000000000003,0)" xlink:href="#aB"/><use transform="matrix(0.05,0,0,0.05,34.95,0)" xlink:href="#aB"/><use transform="matrix(0.05,0,0,0.05,44.95,0)" xlink:href="#aL"/><use transform="matrix(0.05,0,0,0.05,54.95,0)" xlink:href="#aR"/><use transform="matrix(0.05,0,0,0.05,58.900000000000006,0)" xlink:href="#aH"/><use transform="matrix(0.05,0,0,0.05,68.9,0)" xlink:href="#aA"/><use transform="matrix(0.05,0,0,0.05,78.9,0)" xlink:href="#aB"/><use transform="matrix(0.05,0,0,0.05,88.9,0)" xlink:href="#aL"/></g><path d="M137 0h-34L2-248h35l83 218 83-218h36" id="aW"/><g id="s"><use transform="matrix(0.05,0,0,0.05,0,0)" xlink:href="#aW"/><use transform="matrix(0.05,0,0,0.05,11.65,0)" xlink:href="#aF"/><use transform="matrix(0.05,0,0,0.05,15.600000000000001,0)" xlink:href="#aQ"/><use transform="matrix(0.05,0,0,0.05,24.6,0)" xlink:href="#aH"/></g><g id="t"><use transform="matrix(0.05,0,0,0.05,0,0)" xlink:href="#aA"/><use transform="matrix(0.05,0,0,0.05,10,0)" xlink:href="#aP"/><use transform="matrix(0.05,0,0,0.05,20,0)" xlink:href="#aJ"/><use transform="matrix(0.05,0,0,0.05,25,0)" xlink:href="#aG"/><use transform="matrix(0.05,0,0,0.05,34,0)" xlink:href="#aL"/><use transform="matrix(0.05,0,0,0.05,44,0)" xlink:href="#aE"/><use transform="matrix(0.05,0,0,0.05,49.95,0)" xlink:href="#aD"/><use transform="matrix(0.05,0,0,0.05,58.95,0)" xlink:href="#aL"/><use transform="matrix(0.05,0,0,0.05,68.95,0)" xlink:href="#aJ"/></g><path d="M100-194c62-1 85 37 85 99 1 63-27 99-86 99S16-35 15-95c0-66 28-99 85-99zM99-20c44 1 53-31 53-75 0-43-8-75-51-75s-53 32-53 75 10 74 51 75zm22-194v-33h29v33h-29zm-69 0v-33h29v33H52" id="aX"/><g id="u"><use transform="matrix(0.05,0,0,0.05,0,0)" xlink:href="#aT"/><use transform="matrix(0.05,0,0,0.05,5,0)" xlink:href="#aX"/><use transform="matrix(0.05,0,0,0.05,15,0)" xlink:href="#aE"/></g><g id="v"><use transform="matrix(0.05,0,0,0.05,0,0)" xlink:href="#aH"/><use transform="matrix(0.05,0,0,0.05,10,0)" xlink:href="#aA"/><use transform="matrix(0.05,0,0,0.05,20,0)" xlink:href="#aG"/><use transform="matrix(0.05,0,0,0.05,29,0)" xlink:href="#aP"/><use transform="matrix(0.05,0,0,0.05,39,0)" xlink:href="#aA"/><use transform="matrix(0.05,0,0,0.05,49,0)" xlink:href="#aB"/><use transform="matrix(0.05,0,0,0.05,59,0)" xlink:href="#aH"/><use transform="matrix(0.05,0,0,0.05,69,0)" xlink:href="#aE"/><use transform="matrix(0.05,0,0,0.05,74.95,0)" xlink:href="#aL"/><use transform="matrix(0.05,0,0,0.05,84.95,0)" xlink:href="#aA"/></g><use transform="matrix(0.05,0,0,0.05,0,0)" xlink:href="#aF" id="w"/><path d="M33 0v-38h34V0H33" id="aY"/><g id="x"><use transform="matrix(0.05,0,0,0.05,0,0)" xlink:href="#aD"/><use transform="matrix(0.05,0,0,0.05,9,0)" xlink:href="#aO"/><use transform="matrix(0.05,0,0,0.05,19,0)" xlink:href="#aA"/><use transform="matrix(0.05,0,0,0.05,29,0)" xlink:href="#aQ"/><use transform="matrix(0.05,0,0,0.05,38,0)" xlink:href="#aO"/><use transform="matrix(0.05,0,0,0.05,48,0)" xlink:href="#aR"/><use transform="matrix(0.05,0,0,0.05,51.95,0)" xlink:href="#aL"/><use transform="matrix(0.05,0,0,0.05,61.95,0)" xlink:href="#aA"/><use transform="matrix(0.05,0,0,0.05,71.95,0)" xlink:href="#aY"/></g><path d="M16-82v-28h88v28H16" id="aZ"/><use transform="matrix(0.05,0,0,0.05,0,0)" xlink:href="#aZ" id="y"/><g id="z"><use transform="matrix(0.05,0,0,0.05,0,0)" xlink:href="#aC"/><use transform="matrix(0.05,0,0,0.05,12,0)" xlink:href="#aD"/><use transform="matrix(0.05,0,0,0.05,21,0)" xlink:href="#aE"/><use transform="matrix(0.05,0,0,0.05,26.950000000000003,0)" xlink:href="#aF"/><use transform="matrix(0.05,0,0,0.05,30.899999999999995,0)" xlink:href="#aG"/><use transform="matrix(0.05,0,0,0.05,39.9,0)" xlink:href="#aH"/></g><g id="A"><use transform="matrix(0.05,0,0,0.05,0,0)" xlink:href="#aL"/><use transform="matrix(0.05,0,0,0.05,10,0)" xlink:href="#aA"/></g><g id="B"><use transform="matrix(0.05,0,0,0.05,0,0)" xlink:href="#aR"/><use transform="matrix(0.05,0,0,0.05,3.95,0)" xlink:href="#aF"/><use transform="matrix(0.05,0,0,0.05,7.9,0)" xlink:href="#aQ"/><use transform="matrix(0.05,0,0,0.05,16.9,0)" xlink:href="#aJ"/><use transform="matrix(0.05,0,0,0.05,21.9,0)" xlink:href="#aH"/></g><path d="M115-194c55 1 70 41 70 98S169 2 115 4C84 4 66-9 55-30l1 105H24l-1-265h31l2 30c10-21 28-34 59-34zm-8 174c40 0 45-34 45-75s-6-73-45-74c-42 0-51 32-51 76 0 43 10 73 51 73" id="ba"/><path d="M141-36C126-15 110 5 73 4 37 3 15-17 15-53c-1-64 63-63 125-63 3-35-9-54-41-54-24 1-41 7-42 31l-33-3c5-37 33-52 76-52 45 0 72 20 72 64v82c-1 20 7 32 28 27v20c-31 9-61-2-59-35zM48-53c0 20 12 33 32 33 41-3 63-29 60-74-43 2-92-5-92 41zm50-237c26 0 42 16 42 42 0 27-18 40-42 43-25-2-43-16-43-43 0-26 17-42 43-42zm-24 42c-2 26 37 32 45 10 6-16-3-33-21-33-16 0-23 10-24 23" id="bb"/><g id="C"><use transform="matrix(0.05,0,0,0.05,0,0)" xlink:href="#ba"/><use transform="matrix(0.05,0,0,0.05,10,0)" xlink:href="#bb"/></g><g id="D"><use transform="matrix(0.05,0,0,0.05,0,0)" xlink:href="#aH"/><use transform="matrix(0.05,0,0,0.05,10,0)" xlink:href="#aR"/><use transform="matrix(0.05,0,0,0.05,13.949999999999998,0)" xlink:href="#aR"/><use transform="matrix(0.05,0,0,0.05,17.9,0)" xlink:href="#aH"/></g><path d="M24-231v-30h32v30H24zM-9 49c24 4 33-6 33-30v-209h32V24c2 40-23 58-65 49V49" id="bc"/><path d="M177-190C167-65 218 103 67 71c-23-6-38-20-44-43l32-5c15 47 100 32 89-28v-30C133-14 115 1 83 1 29 1 15-40 15-95c0-56 16-97 71-98 29-1 48 16 59 35 1-10 0-23 2-32h30zM94-22c36 0 50-32 50-73 0-42-14-75-50-75-39 0-46 34-46 75s6 73 46 73" id="bd"/><g id="E"><use transform="matrix(0.05,0,0,0.05,0,0)" xlink:href="#aK"/><use transform="matrix(0.05,0,0,0.05,14.950000000000001,0)" xlink:href="#aX"/><use transform="matrix(0.05,0,0,0.05,24.950000000000003,0)" xlink:href="#bc"/><use transform="matrix(0.05,0,0,0.05,28.900000000000002,0)" xlink:href="#aR"/><use transform="matrix(0.05,0,0,0.05,32.85,0)" xlink:href="#aF"/><use transform="matrix(0.05,0,0,0.05,36.800000000000004,0)" xlink:href="#bd"/><use transform="matrix(0.05,0,0,0.05,46.800000000000004,0)" xlink:href="#aH"/></g><g id="F"><use transform="matrix(0.05,0,0,0.05,0,0)" xlink:href="#aA"/><use transform="matrix(0.05,0,0,0.05,10,0)" xlink:href="#aX"/><use transform="matrix(0.05,0,0,0.05,20,0)" xlink:href="#aB"/><use transform="matrix(0.05,0,0,0.05,30,0)" xlink:href="#aL"/><use transform="matrix(0.05,0,0,0.05,40,0)" xlink:href="#aE"/><use transform="matrix(0.05,0,0,0.05,44.95,0)" xlink:href="#aY"/></g><use transform="matrix(0.05,0,0,0.05,0,0)" xlink:href="#aZ" id="G"/><path d="M160-131c35 5 61 23 61 61C221 17 115-2 30 0v-248c76 3 177-17 177 60 0 33-19 50-47 57zm-97-11c50-1 110 9 110-42 0-47-63-36-110-37v79zm0 115c55-2 124 14 124-45 0-56-70-42-124-44v89" id="be"/><g id="H"><use transform="matrix(0.05,0,0,0.05,0,0)" xlink:href="#be"/><use transform="matrix(0.05,0,0,0.05,12,0)" xlink:href="#aL"/></g><g id="I"><use transform="matrix(0.05,0,0,0.05,0,0)" xlink:href="#aO"/><use transform="matrix(0.05,0,0,0.05,10,0)" xlink:href="#aK"/></g><g id="J"><use transform="matrix(0.05,0,0,0.05,0,0)" xlink:href="#aQ"/><use transform="matrix(0.05,0,0,0.05,9,0)" xlink:href="#aJ"/><use transform="matrix(0.05,0,0,0.05,14,0)" xlink:href="#aH"/><use transform="matrix(0.05,0,0,0.05,24,0)" xlink:href="#aE"/><use transform="matrix(0.05,0,0,0.05,29.950000000000003,0)" xlink:href="#aJ"/></g><g id="K"><use transform="matrix(0.05,0,0,0.05,0,0)" xlink:href="#aA"/><use transform="matrix(0.05,0,0,0.05,10,0)" xlink:href="#aO"/><use transform="matrix(0.05,0,0,0.05,20,0)" xlink:href="#aB"/><use transform="matrix(0.05,0,0,0.05,30,0)" xlink:href="#aY"/><use transform="matrix(0.05,0,0,0.05,35,0)" xlink:href="#aY"/></g><g id="L"><use transform="matrix(0.05,0,0,0.05,0,0)" xlink:href="#aA"/><use transform="matrix(0.05,0,0,0.05,10,0)" xlink:href="#aO"/><use transform="matrix(0.05,0,0,0.05,20,0)" xlink:href="#aB"/><use transform="matrix(0.05,0,0,0.05,30,0)" xlink:href="#aY"/></g><g id="M"><use transform="matrix(0.05,0,0,0.05,0,0)" xlink:href="#be"/><use transform="matrix(0.05,0,0,0.05,12,0)" xlink:href="#aL"/></g><g id="N"><use transform="matrix(0.05,0,0,0.05,0,0)" xlink:href="#aQ"/><use transform="matrix(0.05,0,0,0.05,9,0)" xlink:href="#aR"/><use transform="matrix(0.05,0,0,0.05,12.949999999999998,0)" xlink:href="#aI"/><use transform="matrix(0.05,0,0,0.05,22.95,0)" xlink:href="#aJ"/></g><path d="M197 0v-115H63V0H30v-248h33v105h134v-105h34V0h-34" id="bf"/><g id="O"><use transform="matrix(0.05,0,0,0.05,0,0)" xlink:href="#bf"/><use transform="matrix(0.05,0,0,0.05,12.950000000000001,0)" xlink:href="#aF"/><use transform="matrix(0.05,0,0,0.05,16.900000000000002,0)" xlink:href="#aJ"/><use transform="matrix(0.05,0,0,0.05,21.900000000000002,0)" xlink:href="#aJ"/><use transform="matrix(0.05,0,0,0.05,26.900000000000002,0)" xlink:href="#aH"/></g><g id="P"><use transform="matrix(0.05,0,0,0.05,0,0)" xlink:href="#aD"/><use transform="matrix(0.05,0,0,0.05,9,0)" xlink:href="#aO"/><use transform="matrix(0.05,0,0,0.05,19,0)" xlink:href="#aE"/><use transform="matrix(0.05,0,0,0.05,24.95,0)" xlink:href="#aJ"/><use transform="matrix(0.05,0,0,0.05,29.950000000000003,0)" xlink:href="#aH"/><use transform="matrix(0.05,0,0,0.05,39.95,0)" xlink:href="#aQ"/><use transform="matrix(0.05,0,0,0.05,48.95,0)" xlink:href="#aL"/></g><g id="Q"><use transform="matrix(0.05,0,0,0.05,0,0)" xlink:href="#aG"/><use transform="matrix(0.05,0,0,0.05,9,0)" xlink:href="#aP"/><use transform="matrix(0.05,0,0,0.05,19,0)" xlink:href="#bd"/><use transform="matrix(0.05,0,0,0.05,29,0)" xlink:href="#aL"/><use transform="matrix(0.05,0,0,0.05,39,0)" xlink:href="#aA"/></g><g id="R"><use transform="matrix(0.05,0,0,0.05,0,0)" xlink:href="#aK"/><use transform="matrix(0.05,0,0,0.05,14.950000000000001,0)" xlink:href="#aL"/><use transform="matrix(0.05,0,0,0.05,24.950000000000003,0)" xlink:href="#aR"/><use transform="matrix(0.05,0,0,0.05,28.900000000000002,0)" xlink:href="#aR"/><use transform="matrix(0.05,0,0,0.05,32.85,0)" xlink:href="#aH"/><use transform="matrix(0.05,0,0,0.05,42.85,0)" xlink:href="#aA"/></g><g id="S"><use transform="matrix(0.05,0,0,0.05,0,0)" xlink:href="#aB"/><use transform="matrix(0.05,0,0,0.05,10,0)" xlink:href="#aL"/></g><g id="T"><use transform="matrix(0.05,0,0,0.05,0,0)" xlink:href="#aJ"/><use transform="matrix(0.05,0,0,0.05,5,0)" xlink:href="#aG"/><use transform="matrix(0.05,0,0,0.05,14,0)" xlink:href="#bb"/></g><g id="U"><use transform="matrix(0.05,0,0,0.05,0,0)" xlink:href="#aF"/><use transform="matrix(0.05,0,0,0.05,3.95,0)" xlink:href="#aA"/><use transform="matrix(0.05,0,0,0.05,13.949999999999998,0)" xlink:href="#aK"/><use transform="matrix(0.05,0,0,0.05,28.899999999999995,0)" xlink:href="#aH"/><use transform="matrix(0.05,0,0,0.05,38.9,0)" xlink:href="#aJ"/><use transform="matrix(0.05,0,0,0.05,43.9,0)" xlink:href="#aH"/><use transform="matrix(0.05,0,0,0.05,53.900000000000006,0)" xlink:href="#aA"/><use transform="matrix(0.05,0,0,0.05,63.900000000000006,0)" xlink:href="#aB"/><use transform="matrix(0.05,0,0,0.05,73.9,0)" xlink:href="#aL"/></g><g id="V"><use transform="matrix(0.05,0,0,0.05,0,0)" xlink:href="#aA"/><use transform="matrix(0.05,0,0,0.05,10,0)" xlink:href="#aO"/><use transform="matrix(0.05,0,0,0.05,20,0)" xlink:href="#aB"/><use transform="matrix(0.05,0,0,0.05,30,0)" xlink:href="#aL"/><use transform="matrix(0.05,0,0,0.05,40,0)" xlink:href="#aE"/><use transform="matrix(0.05,0,0,0.05,45.95,0)" xlink:href="#aA"/><use transform="matrix(0.05,0,0,0.05,55.95,0)" xlink:href="#aH"/><use transform="matrix(0.05,0,0,0.05,65.95,0)" xlink:href="#aY"/></g><g id="W"><use transform="matrix(0.05,0,0,0.05,0,0)" xlink:href="#aE"/><use transform="matrix(0.05,0,0,0.05,5.95,0)" xlink:href="#aL"/><use transform="matrix(0.05,0,0,0.05,15.949999999999998,0)" xlink:href="#aQ"/><use transform="matrix(0.05,0,0,0.05,24.95,0)" xlink:href="#aI"/><use transform="matrix(0.05,0,0,0.05,34.95,0)" xlink:href="#aR"/><use transform="matrix(0.05,0,0,0.05,38.900000000000006,0)" xlink:href="#aJ"/><use transform="matrix(0.05,0,0,0.05,43.900000000000006,0)" xlink:href="#aH"/><use transform="matrix(0.05,0,0,0.05,53.900000000000006,0)" xlink:href="#aJ"/><use transform="matrix(0.05,0,0,0.05,58.900000000000006,0)" xlink:href="#aL"/><use transform="matrix(0.05,0,0,0.05,68.9,0)" xlink:href="#aJ"/></g><path d="M109-170H84l-4-78h32zm-65 0H19l-4-78h33" id="bg"/><g id="X"><use transform="matrix(0.05,0,0,0.05,0,0)" xlink:href="#bg"/><use transform="matrix(0.05,0,0,0.05,6.3500000000000005,0)" xlink:href="#aD"/><use transform="matrix(0.05,0,0,0.05,15.350000000000001,0)" xlink:href="#aO"/><use transform="matrix(0.05,0,0,0.05,25.35,0)" xlink:href="#aE"/><use transform="matrix(0.05,0,0,0.05,31.3,0)" xlink:href="#aJ"/><use transform="matrix(0.05,0,0,0.05,36.3,0)" xlink:href="#aH"/><use transform="matrix(0.05,0,0,0.05,46.3,0)" xlink:href="#aQ"/><use transform="matrix(0.05,0,0,0.05,55.29999999999999,0)" xlink:href="#aJ"/><use transform="matrix(0.05,0,0,0.05,60.29999999999999,0)" xlink:href="#aL"/></g><g id="Y"><use transform="matrix(0.05,0,0,0.05,0,0)" xlink:href="#aG"/><use transform="matrix(0.05,0,0,0.05,9,0)" xlink:href="#aP"/><use transform="matrix(0.05,0,0,0.05,19,0)" xlink:href="#bd"/><use transform="matrix(0.05,0,0,0.05,29,0)" xlink:href="#aL"/><use transform="matrix(0.05,0,0,0.05,39,0)" xlink:href="#aA"/><use transform="matrix(0.05,0,0,0.05,49,0)" xlink:href="#aY"/><use transform="matrix(0.05,0,0,0.05,54,0)" xlink:href="#bg"/></g><g id="Z"><use transform="matrix(0.05,0,0,0.05,0,0)" xlink:href="#be"/><use transform="matrix(0.05,0,0,0.05,12,0)" xlink:href="#aM"/><use transform="matrix(0.05,0,0,0.05,21,0)" xlink:href="#aJ"/><use transform="matrix(0.05,0,0,0.05,26,0)" xlink:href="#aH"/></g><path d="M96-169c-40 0-48 33-48 73s9 75 48 75c24 0 41-14 43-38l32 2c-6 37-31 61-74 61-59 0-76-41-82-99-10-93 101-131 147-64 4 7 5 14 7 22l-32 3c-4-21-16-35-41-35" id="bh"/><g id="aa"><use transform="matrix(0.05,0,0,0.05,0,0)" xlink:href="#aO"/><use transform="matrix(0.05,0,0,0.05,10,0)" xlink:href="#bh"/><use transform="matrix(0.05,0,0,0.05,19,0)" xlink:href="#aU"/></g><g id="ab"><use transform="matrix(0.05,0,0,0.05,0,0)" xlink:href="#aG"/><use transform="matrix(0.05,0,0,0.05,9,0)" xlink:href="#aF"/><use transform="matrix(0.05,0,0,0.05,12.949999999999998,0)" xlink:href="#aD"/><use transform="matrix(0.05,0,0,0.05,21.95,0)" xlink:href="#aJ"/><use transform="matrix(0.05,0,0,0.05,26.950000000000003,0)" xlink:href="#aL"/><use transform="matrix(0.05,0,0,0.05,36.95,0)" xlink:href="#aE"/></g><g id="ac"><use transform="matrix(0.05,0,0,0.05,0,0)" xlink:href="#aK"/><use transform="matrix(0.05,0,0,0.05,14.950000000000001,0)" xlink:href="#aL"/><use transform="matrix(0.05,0,0,0.05,24.950000000000003,0)" xlink:href="#aR"/><use transform="matrix(0.05,0,0,0.05,28.900000000000002,0)" xlink:href="#aR"/><use transform="matrix(0.05,0,0,0.05,32.85,0)" xlink:href="#aH"/><use transform="matrix(0.05,0,0,0.05,42.85,0)" xlink:href="#aA"/></g><g id="ad"><use transform="matrix(0.05,0,0,0.05,0,0)" xlink:href="#aA"/><use transform="matrix(0.05,0,0,0.05,10,0)" xlink:href="#aO"/><use transform="matrix(0.05,0,0,0.05,20,0)" xlink:href="#aB"/><use transform="matrix(0.05,0,0,0.05,30,0)" xlink:href="#aL"/><use transform="matrix(0.05,0,0,0.05,40,0)" xlink:href="#aE"/><use transform="matrix(0.05,0,0,0.05,45.95,0)" xlink:href="#aA"/><use transform="matrix(0.05,0,0,0.05,55.95,0)" xlink:href="#aH"/><use transform="matrix(0.05,0,0,0.05,65.95,0)" xlink:href="#aY"/></g><g id="ae"><use transform="matrix(0.05,0,0,0.05,0,0)" xlink:href="#bg"/><use transform="matrix(0.05,0,0,0.05,6.3500000000000005,0)" xlink:href="#bb"/><use transform="matrix(0.05,0,0,0.05,16.35,0)" xlink:href="#aJ"/><use transform="matrix(0.05,0,0,0.05,21.35,0)" xlink:href="#aL"/><use transform="matrix(0.05,0,0,0.05,31.35,0)" xlink:href="#aE"/><use transform="matrix(0.05,0,0,0.05,37.300000000000004,0)" xlink:href="#aQ"/><use transform="matrix(0.05,0,0,0.05,46.300000000000004,0)" xlink:href="#aD"/><use transform="matrix(0.05,0,0,0.05,55.300000000000004,0)" xlink:href="#aH"/><use transform="matrix(0.05,0,0,0.05,65.30000000000001,0)" xlink:href="#ba"/><use transform="matrix(0.05,0,0,0.05,75.30000000000001,0)" xlink:href="#aH"/></g><g id="af"><use transform="matrix(0.05,0,0,0.05,0,0)" xlink:href="#aA"/><use transform="matrix(0.05,0,0,0.05,10,0)" xlink:href="#aP"/><use transform="matrix(0.05,0,0,0.05,20,0)" xlink:href="#aJ"/><use transform="matrix(0.05,0,0,0.05,25,0)" xlink:href="#aG"/><use transform="matrix(0.05,0,0,0.05,34,0)" xlink:href="#aL"/><use transform="matrix(0.05,0,0,0.05,44,0)" xlink:href="#aE"/><use transform="matrix(0.05,0,0,0.05,49.95,0)" xlink:href="#aD"/><use transform="matrix(0.05,0,0,0.05,58.95,0)" xlink:href="#aL"/><use transform="matrix(0.05,0,0,0.05,68.95,0)" xlink:href="#aJ"/><use transform="matrix(0.05,0,0,0.05,73.95,0)" xlink:href="#bg"/></g><g id="ag"><use transform="matrix(0.05,0,0,0.05,0,0)" xlink:href="#aQ"/><use transform="matrix(0.05,0,0,0.05,9,0)" xlink:href="#aJ"/><use transform="matrix(0.05,0,0,0.05,14,0)" xlink:href="#aH"/><use transform="matrix(0.05,0,0,0.05,24,0)" xlink:href="#aE"/><use transform="matrix(0.05,0,0,0.05,29.950000000000003,0)" xlink:href="#aJ"/></g><g id="ah"><use transform="matrix(0.05,0,0,0.05,0,0)" xlink:href="#aC"/><use transform="matrix(0.05,0,0,0.05,12,0)" xlink:href="#aD"/><use transform="matrix(0.05,0,0,0.05,21,0)" xlink:href="#aH"/><use transform="matrix(0.05,0,0,0.05,31,0)" xlink:href="#ba"/><use transform="matrix(0.05,0,0,0.05,41,0)" xlink:href="#aH"/></g><g id="ai"><use transform="matrix(0.05,0,0,0.05,0,0)" xlink:href="#aA"/><use transform="matrix(0.05,0,0,0.05,10,0)" xlink:href="#aO"/><use transform="matrix(0.05,0,0,0.05,20,0)" xlink:href="#aB"/><use transform="matrix(0.05,0,0,0.05,30,0)" xlink:href="#aL"/><use transform="matrix(0.05,0,0,0.05,40,0)" xlink:href="#aE"/><use transform="matrix(0.05,0,0,0.05,45.95,0)" xlink:href="#aA"/><use transform="matrix(0.05,0,0,0.05,55.95,0)" xlink:href="#aH"/></g><g id="aj"><use transform="matrix(0.05,0,0,0.05,0,0)" xlink:href="#aF"/><use transform="matrix(0.05,0,0,0.05,3.95,0)" xlink:href="#aT"/><use transform="matrix(0.05,0,0,0.05,8.95,0)" xlink:href="#aE"/><use transform="matrix(0.05,0,0,0.05,14.899999999999999,0)" xlink:href="#bb"/><use transform="matrix(0.05,0,0,0.05,24.9,0)" xlink:href="#aA"/></g><g id="ak"><use transform="matrix(0.05,0,0,0.05,0,0)" xlink:href="#aV"/><use transform="matrix(0.05,0,0,0.05,10,0)" xlink:href="#aI"/><use transform="matrix(0.05,0,0,0.05,20,0)" xlink:href="#aQ"/><use transform="matrix(0.05,0,0,0.05,29,0)" xlink:href="#aQ"/><use transform="matrix(0.05,0,0,0.05,38,0)" xlink:href="#aU"/><use transform="matrix(0.05,0,0,0.05,48,0)" xlink:href="#bb"/><use transform="matrix(0.05,0,0,0.05,58,0)" xlink:href="#aR"/><use transform="matrix(0.05,0,0,0.05,61.95,0)" xlink:href="#aR"/><use transform="matrix(0.05,0,0,0.05,65.9,0)" xlink:href="#ba"/><use transform="matrix(0.05,0,0,0.05,75.9,0)" xlink:href="#aR"/><use transform="matrix(0.05,0,0,0.05,79.85000000000001,0)" xlink:href="#aH"/><use transform="matrix(0.05,0,0,0.05,89.85000000000001,0)" xlink:href="#aJ"/><use transform="matrix(0.05,0,0,0.05,94.85000000000001,0)" xlink:href="#aQ"/></g><g id="al"><use transform="matrix(0.05,0,0,0.05,0,0)" xlink:href="#bg"/><use transform="matrix(0.05,0,0,0.05,6.3500000000000005,0)" xlink:href="#aR"/><use transform="matrix(0.05,0,0,0.05,10.3,0)" xlink:href="#aH"/><use transform="matrix(0.05,0,0,0.05,20.3,0)" xlink:href="#bd"/><use transform="matrix(0.05,0,0,0.05,30.3,0)" xlink:href="#aE"/><use transform="matrix(0.05,0,0,0.05,36.25,0)" xlink:href="#aH"/><use transform="matrix(0.05,0,0,0.05,46.25,0)" xlink:href="#aE"/></g><g id="am"><use transform="matrix(0.05,0,0,0.05,0,0)" xlink:href="#aA"/><use transform="matrix(0.05,0,0,0.05,10,0)" xlink:href="#aH"/><use transform="matrix(0.05,0,0,0.05,20,0)" xlink:href="#aK"/><use transform="matrix(0.05,0,0,0.05,34.95,0)" xlink:href="#aA"/></g><g id="an"><use transform="matrix(0.05,0,0,0.05,0,0)" xlink:href="#aV"/><use transform="matrix(0.05,0,0,0.05,10,0)" xlink:href="#aI"/><use transform="matrix(0.05,0,0,0.05,20,0)" xlink:href="#aQ"/><use transform="matrix(0.05,0,0,0.05,29,0)" xlink:href="#aQ"/><use transform="matrix(0.05,0,0,0.05,38,0)" xlink:href="#aU"/><use transform="matrix(0.05,0,0,0.05,48,0)" xlink:href="#bb"/><use transform="matrix(0.05,0,0,0.05,58,0)" xlink:href="#aR"/><use transform="matrix(0.05,0,0,0.05,61.95,0)" xlink:href="#aR"/><use transform="matrix(0.05,0,0,0.05,65.9,0)" xlink:href="#ba"/><use transform="matrix(0.05,0,0,0.05,75.9,0)" xlink:href="#aR"/><use transform="matrix(0.05,0,0,0.05,79.85000000000001,0)" xlink:href="#aH"/><use transform="matrix(0.05,0,0,0.05,89.85000000000001,0)" xlink:href="#aJ"/><use transform="matrix(0.05,0,0,0.05,94.85000000000001,0)" xlink:href="#aL"/><use transform="matrix(0.05,0,0,0.05,104.85000000000001,0)" xlink:href="#aQ"/><use transform="matrix(0.05,0,0,0.05,113.85000000000001,0)" xlink:href="#aE"/><use transform="matrix(0.05,0,0,0.05,119.80000000000001,0)" xlink:href="#bg"/></g><g id="ao"><use transform="matrix(0.05,0,0,0.05,0,0)" xlink:href="#aC"/><use transform="matrix(0.05,0,0,0.05,12,0)" xlink:href="#aD"/><use transform="matrix(0.05,0,0,0.05,21,0)" xlink:href="#aH"/><use transform="matrix(0.05,0,0,0.05,31,0)" xlink:href="#ba"/><use transform="matrix(0.05,0,0,0.05,41,0)" xlink:href="#aH"/></g><g id="ap"><use transform="matrix(0.05,0,0,0.05,0,0)" xlink:href="#aL"/><use transform="matrix(0.05,0,0,0.05,10,0)" xlink:href="#aJ"/><use transform="matrix(0.05,0,0,0.05,15,0)" xlink:href="#aJ"/></g><g id="aq"><use transform="matrix(0.05,0,0,0.05,0,0)" xlink:href="#aQ"/><use transform="matrix(0.05,0,0,0.05,9,0)" xlink:href="#aR"/><use transform="matrix(0.05,0,0,0.05,12.949999999999998,0)" xlink:href="#aI"/><use transform="matrix(0.05,0,0,0.05,22.95,0)" xlink:href="#aK"/><use transform="matrix(0.05,0,0,0.05,37.9,0)" xlink:href="#ba"/><use transform="matrix(0.05,0,0,0.05,47.9,0)" xlink:href="#aK"/><use transform="matrix(0.05,0,0,0.05,62.85,0)" xlink:href="#aP"/><use transform="matrix(0.05,0,0,0.05,72.85,0)" xlink:href="#aQ"/><use transform="matrix(0.05,0,0,0.05,81.85,0)" xlink:href="#aQ"/><use transform="matrix(0.05,0,0,0.05,90.85,0)" xlink:href="#aF"/><use transform="matrix(0.05,0,0,0.05,94.8,0)" xlink:href="#bd"/><use transform="matrix(0.05,0,0,0.05,104.80000000000001,0)" xlink:href="#aJ"/></g><g id="ar"><use transform="matrix(0.05,0,0,0.05,0,0)" xlink:href="#aA"/><use transform="matrix(0.05,0,0,0.05,10,0)" xlink:href="#aP"/><use transform="matrix(0.05,0,0,0.05,20,0)" xlink:href="#aJ"/><use transform="matrix(0.05,0,0,0.05,25,0)" xlink:href="#aG"/><use transform="matrix(0.05,0,0,0.05,34,0)" xlink:href="#aL"/><use transform="matrix(0.05,0,0,0.05,44,0)" xlink:href="#aE"/><use transform="matrix(0.05,0,0,0.05,49.95,0)" xlink:href="#aD"/></g><g id="as"><use transform="matrix(0.05,0,0,0.05,0,0)" xlink:href="#aV"/><use transform="matrix(0.05,0,0,0.05,10,0)" xlink:href="#aL"/><use transform="matrix(0.05,0,0,0.05,20,0)" xlink:href="#aT"/><use transform="matrix(0.05,0,0,0.05,25,0)" xlink:href="#aL"/><use transform="matrix(0.05,0,0,0.05,35,0)" xlink:href="#aA"/><use transform="matrix(0.05,0,0,0.05,45,0)" xlink:href="#aJ"/><use transform="matrix(0.05,0,0,0.05,50,0)" xlink:href="#aR"/><use transform="matrix(0.05,0,0,0.05,53.95,0)" xlink:href="#aF"/><use transform="matrix(0.05,0,0,0.05,57.900000000000006,0)" xlink:href="#bd"/><use transform="matrix(0.05,0,0,0.05,67.9,0)" xlink:href="#aH"/></g><g id="at"><use transform="matrix(0.05,0,0,0.05,0,0)" xlink:href="#aA"/><use transform="matrix(0.05,0,0,0.05,10,0)" xlink:href="#aO"/><use transform="matrix(0.05,0,0,0.05,20,0)" xlink:href="#aB"/><use transform="matrix(0.05,0,0,0.05,30,0)" xlink:href="#aL"/><use transform="matrix(0.05,0,0,0.05,40,0)" xlink:href="#aE"/><use transform="matrix(0.05,0,0,0.05,45.95,0)" xlink:href="#aA"/><use transform="matrix(0.05,0,0,0.05,55.95,0)" xlink:href="#aH"/></g><g id="au"><use transform="matrix(0.05,0,0,0.05,0,0)" xlink:href="#aV"/><use transform="matrix(0.05,0,0,0.05,10,0)" xlink:href="#aL"/><use transform="matrix(0.05,0,0,0.05,20,0)" xlink:href="#aQ"/><use transform="matrix(0.05,0,0,0.05,29,0)" xlink:href="#aJ"/><use transform="matrix(0.05,0,0,0.05,34,0)" xlink:href="#aP"/><use transform="matrix(0.05,0,0,0.05,44,0)" xlink:href="#aK"/><use transform="matrix(0.05,0,0,0.05,58.95,0)" xlink:href="#aK"/><use transform="matrix(0.05,0,0,0.05,73.9,0)" xlink:href="#aH"/></g><g id="av"><use transform="matrix(0.05,0,0,0.05,0,0)" xlink:href="#aQ"/><use transform="matrix(0.05,0,0,0.05,9,0)" xlink:href="#aR"/><use transform="matrix(0.05,0,0,0.05,12.949999999999998,0)" xlink:href="#aI"/><use transform="matrix(0.05,0,0,0.05,22.95,0)" xlink:href="#aK"/><use transform="matrix(0.05,0,0,0.05,37.9,0)" xlink:href="#ba"/><use transform="matrix(0.05,0,0,0.05,47.9,0)" xlink:href="#aK"/><use transform="matrix(0.05,0,0,0.05,62.85,0)" xlink:href="#aP"/><use transform="matrix(0.05,0,0,0.05,72.85,0)" xlink:href="#aQ"/><use transform="matrix(0.05,0,0,0.05,81.85,0)" xlink:href="#aQ"/><use transform="matrix(0.05,0,0,0.05,90.85,0)" xlink:href="#aF"/><use transform="matrix(0.05,0,0,0.05,94.8,0)" xlink:href="#bd"/><use transform="matrix(0.05,0,0,0.05,104.80000000000001,0)" xlink:href="#aJ"/></g><g id="aw"><use transform="matrix(0.05,0,0,0.05,0,0)" xlink:href="#aB"/><use transform="matrix(0.05,0,0,0.05,10,0)" xlink:href="#aL"/><use transform="matrix(0.05,0,0,0.05,20,0)" xlink:href="#aK"/><use transform="matrix(0.05,0,0,0.05,34.95,0)" xlink:href="#aY"/></g><path d="M240 0l2-218c-23 76-54 145-80 218h-23L58-218 59 0H30v-248h44l77 211c21-75 51-140 76-211h43V0h-30" id="bi"/><g id="ax"><use transform="matrix(0.05,0,0,0.05,0,0)" xlink:href="#bi"/><use transform="matrix(0.05,0,0,0.05,14.950000000000001,0)" xlink:href="#aL"/><use transform="matrix(0.05,0,0,0.05,24.950000000000003,0)" xlink:href="#aA"/><use transform="matrix(0.05,0,0,0.05,34.95,0)" xlink:href="#aM"/><use transform="matrix(0.05,0,0,0.05,43.95,0)" xlink:href="#aA"/></g><g id="ay"><use transform="matrix(0.05,0,0,0.05,0,0)" xlink:href="#aB"/><use transform="matrix(0.05,0,0,0.05,10,0)" xlink:href="#aF"/><use transform="matrix(0.05,0,0,0.05,13.949999999999998,0)" xlink:href="#aH"/><use transform="matrix(0.05,0,0,0.05,23.95,0)" xlink:href="#bd"/><use transform="matrix(0.05,0,0,0.05,33.95,0)" xlink:href="#aE"/><use transform="matrix(0.05,0,0,0.05,39.900000000000006,0)" xlink:href="#aH"/><use transform="matrix(0.05,0,0,0.05,49.900000000000006,0)" xlink:href="#aK"/><use transform="matrix(0.05,0,0,0.05,64.85000000000001,0)" xlink:href="#aY"/></g></defs></g></svg>