<svg xmlns="http://www.w3.org/2000/svg" xmlns:xlink="http://www.w3.org/1999/xlink" xmlns:lucid="lucid" width="1326.48" height="1320"><g transform="translate(0 0)" lucid:page-tab-id="0_0"><path d="M0 0h1870.4v1323.2H0z" fill="#fff"/><path d="M975.2 60c0 22.1-17.9 40-40 40s-40-17.9-40-40 17.9-40 40-40 40 17.9 40 40z" stroke="#000" stroke-width="2" fill="#a3d977"/><use xlink:href="#a" transform="matrix(1,0,0,1,900.1999999999999,25) translate(16.025 38.4625)"/><path d="M975.2 1260c0 22.1-17.9 40-40 40s-40-17.9-40-40 17.9-40 40-40 40 17.9 40 40z" stroke="#000" stroke-width="2" fill="#ff8f80"/><use xlink:href="#b" transform="matrix(1,0,0,1,900.1999999999999,1225) translate(19 38.4625)"/><path d="M797.6 160h275.2v60H797.6z" stroke="#000" stroke-width="2" fill="#fff"/><use xlink:href="#c" transform="matrix(1,0,0,1,802.6000000000232,165) translate(51.375 30.025)"/><use xlink:href="#d" transform="matrix(1,0,0,1,802.6000000000232,165) translate(56.375 30.025)"/><use xlink:href="#e" transform="matrix(1,0,0,1,802.6000000000232,165) translate(161.175 30.025)"/><use xlink:href="#f" transform="matrix(1,0,0,1,802.6000000000232,165) translate(176.675 30.025)"/><path d="M935.2 102v38.5" stroke="#000" stroke-width="2" fill="none"/><path d="M935.2 101l1-.03v1.06h-2v-1.1z"/><path d="M935.2 155.76l-4.64-14.26h9.28z" stroke="#000" stroke-width="2"/><path d="M935.2 222v18.5" stroke="#000" stroke-width="2" fill="none"/><path d="M936.2 222.03h-2V221h2z"/><path d="M935.2 255.76l-4.64-14.26h9.28z" stroke="#000" stroke-width="2"/><path d="M797.6 260h275.2v80H797.6z" stroke="#000" stroke-width="2" fill="#fff"/><use xlink:href="#g" transform="matrix(1,0,0,1,802.6000000000367,265) translate(26.625 27.525)"/><use xlink:href="#h" transform="matrix(1,0,0,1,802.6000000000367,265) translate(122.47500000000001 27.525)"/><use xlink:href="#i" transform="matrix(1,0,0,1,802.6000000000367,265) translate(190.375 27.525)"/><use xlink:href="#j" transform="matrix(1,0,0,1,802.6000000000367,265) translate(9.649999999999991 49.125)"/><use xlink:href="#k" transform="matrix(1,0,0,1,802.6000000000367,265) translate(68.55 49.125)"/><use xlink:href="#l" transform="matrix(1,0,0,1,802.6000000000367,265) translate(117.55 49.125)"/><use xlink:href="#m" transform="matrix(1,0,0,1,802.6000000000367,265) translate(152.55 49.125)"/><use xlink:href="#n" transform="matrix(1,0,0,1,802.6000000000367,265) translate(184.45 49.125)"/><use xlink:href="#o" transform="matrix(1,0,0,1,802.6000000000367,265) translate(207.35000000000002 49.125)"/><path d="M935.2 342v18.25" stroke="#000" stroke-width="2" fill="none"/><path d="M936.2 342.03h-2V341h2z"/><path d="M935.2 375.5l-4.64-14.25h9.28z" stroke="#000" stroke-width="2"/><path d="M935.2 380l80 60-80 60-80-60z" stroke="#000" stroke-width="2" fill="#fff"/><use xlink:href="#p" transform="matrix(1,0,0,1,860.2000000000285,385) translate(25.104999999999997 59.0875)"/><path d="M936.2 599.25h-2V570.3h2zm0-50.55h-2v-46.45h2z"/><path d="M936.2 502.28h-2v-1.78l1 .75 1-.75zM935.2 614.5l-4.64-14.25h9.28z"/><path d="M935.2 617.75l-6-18.5h12zm-3.26-16.5l3.26 10.03 3.26-10.03z"/><use xlink:href="#q" transform="matrix(1,0,0,1,916.2250000000284,548.7) translate(0 14.4)"/><path d="M807.6 618.75h255.2v80H807.6z" stroke="#000" stroke-width="2" fill="#fff"/><use xlink:href="#r" transform="matrix(1,0,0,1,812.6000000000142,623.75) translate(18.049999999999997 27.525)"/><use xlink:href="#n" transform="matrix(1,0,0,1,812.6000000000142,623.75) translate(52.05 27.525)"/><use xlink:href="#s" transform="matrix(1,0,0,1,812.6000000000142,623.75) translate(74.94999999999999 27.525)"/><use xlink:href="#l" transform="matrix(1,0,0,1,812.6000000000142,623.75) translate(119.95 27.525)"/><use xlink:href="#t" transform="matrix(1,0,0,1,812.6000000000142,623.75) translate(154.95 27.525)"/><use xlink:href="#u" transform="matrix(1,0,0,1,812.6000000000142,623.75) translate(188.95 27.525)"/><use xlink:href="#v" transform="matrix(1,0,0,1,812.6000000000142,623.75) translate(78.525 49.125)"/><use xlink:href="#w" transform="matrix(1,0,0,1,812.6000000000142,623.75) translate(123.47500000000001 49.125)"/><path d="M935.2 700.75v38.36" stroke="#000" stroke-width="2" fill="none"/><path d="M936.2 700.78h-2v-1.03h2z"/><path d="M935.2 754.4l-4.64-14.28h9.28z" stroke="#000" stroke-width="2"/><path d="M935.2 758.75l115.7 60-115.7 60-115.7-60z" stroke="#000" stroke-width="2" fill="#fff"/><use xlink:href="#x" transform="matrix(1,0,0,1,824.4999999999727,763.75) translate(30.55499999999999 59.0875)"/><use xlink:href="#y" transform="matrix(1,0,0,1,824.4999999999727,763.75) translate(87.505 59.0875)"/><use xlink:href="#z" transform="matrix(1,0,0,1,824.4999999999727,763.75) translate(154.455 59.0875)"/><use xlink:href="#A" transform="matrix(1,0,0,1,824.4999999999727,763.75) translate(180.455 59.0875)"/><path d="M750.2 819.75h-10.7v-2h10.7zm66.13 0h-28.2v-2h28.2z"/><path d="M817.33 818.75l1.93 1h-2.96v-2h2.96zM738.5 823.4l-14.26-4.65 14.26-4.64z"/><path d="M739.5 824.76l-18.5-6 18.5-6.02zm-12.03-6L737.5 822v-6.5z"/><use xlink:href="#q" transform="matrix(1,0,0,1,750.1888980889711,807.95) translate(0 14.4)"/><path d="M540 788.75h180v60H540z" stroke="#000" stroke-width="2" fill="#fff"/><use xlink:href="#c" transform="matrix(1,0,0,1,545,793.75) translate(6.875 30.025)"/><use xlink:href="#d" transform="matrix(1,0,0,1,545,793.75) translate(11.875 30.025)"/><use xlink:href="#e" transform="matrix(1,0,0,1,545,793.75) translate(116.675 30.025)"/><use xlink:href="#B" transform="matrix(1,0,0,1,545,793.75) translate(132.175 30.025)"/><path d="M835.03 441H500v376.75h38v2h-40V439h337.03z"/><path d="M539 819.75h-1.03v-2H539zM850.3 440l-14.27 4.64v-9.28z"/><path d="M853.53 440l-18.5 6v-12zm-16.5 3.26l10.03-3.26-10.03-3.26zM1301 1180H936.2v20.5h-2V1178H1299V881.13h2zm0-320.47h-2V441h-281.13v-2H1301z"/><path d="M1017.9 441h-2.37l1.34-1-1.34-1h2.36zM935.2 1215.76l-4.64-14.26h9.28z"/><path d="M935.2 1219l-6-18.5h12zm-3.26-16.5l3.26 10.03 3.26-10.03z"/><g><use xlink:href="#C" transform="matrix(1,0,0,1,1284.525,859.5330214735034) translate(0 14.4)"/></g><path d="M936.2 939.25h-2v-9.64h2zm0-31.24h-2V880.9h2zM936.2 880.9h-2v-1.54l1 .52 1-.52zM935.2 954.5l-4.64-14.25h9.28z"/><path d="M935.2 957.75l-6-18.5h12zm-3.26-16.5l3.26 10.03 3.26-10.03z"/><g><use xlink:href="#D" transform="matrix(1,0,0,1,923.7249999999851,908.0132334888552) translate(0 14.4)"/></g><path d="M754 958.75h362.4v100H754z" stroke="#000" stroke-width="2" fill="#fff"/><g><use xlink:href="#E" transform="matrix(1,0,0,1,759.0000000000036,963.75) translate(11.625 36.9)"/><use xlink:href="#F" transform="matrix(1,0,0,1,759.0000000000036,963.75) translate(48.625 36.9)"/><use xlink:href="#G" transform="matrix(1,0,0,1,759.0000000000036,963.75) translate(88.625 36.9)"/><use xlink:href="#H" transform="matrix(1,0,0,1,759.0000000000036,963.75) translate(114.575 36.9)"/><use xlink:href="#s" transform="matrix(1,0,0,1,759.0000000000036,963.75) translate(163.525 36.9)"/><use xlink:href="#I" transform="matrix(1,0,0,1,759.0000000000036,963.75) translate(208.525 36.9)"/><use xlink:href="#J" transform="matrix(1,0,0,1,759.0000000000036,963.75) translate(245.425 36.9)"/><use xlink:href="#K" transform="matrix(1,0,0,1,759.0000000000036,963.75) translate(311.375 36.9)"/><use xlink:href="#l" transform="matrix(1,0,0,1,759.0000000000036,963.75) translate(85.1 58.5)"/><use xlink:href="#t" transform="matrix(1,0,0,1,759.0000000000036,963.75) translate(120.1 58.5)"/><use xlink:href="#L" transform="matrix(1,0,0,1,759.0000000000036,963.75) translate(154.1 58.5)"/><use xlink:href="#M" transform="matrix(1,0,0,1,759.0000000000036,963.75) translate(179.1 58.5)"/><use xlink:href="#N" transform="matrix(1,0,0,1,759.0000000000036,963.75) translate(231 58.5)"/></g><path d="M500 1098.75h434.2v-38h2v40H498v-263.5h2z"/><path d="M936.2 1060.78h-2v-1.03h2zM503.64 836.25h-9.28L499 822z"/><path d="M505 837.25h-12l6-18.5zm-9.26-2h6.52L499 825.22z"/><path d="M20 20h260v100H20z" stroke="#000" stroke-width="2" fill="#99d2f2"/><g><use xlink:href="#O" transform="matrix(1,0,0,1,25,25) translate(41.625 48.15)"/></g><defs><path d="M185-189c-5-48-123-54-124 2 14 75 158 14 163 119 3 78-121 87-175 55-17-10-28-26-33-46l33-7c5 56 141 63 141-1 0-78-155-14-162-118-5-82 145-84 179-34 5 7 8 16 11 25" id="P"/><path d="M59-47c-2 24 18 29 38 22v24C64 9 27 4 27-40v-127H5v-23h24l9-43h21v43h35v23H59v120" id="Q"/><path d="M141-36C126-15 110 5 73 4 37 3 15-17 15-53c-1-64 63-63 125-63 3-35-9-54-41-54-24 1-41 7-42 31l-33-3c5-37 33-52 76-52 45 0 72 20 72 64v82c-1 20 7 32 28 27v20c-31 9-61-2-59-35zM48-53c0 20 12 33 32 33 41-3 63-29 60-74-43 2-92-5-92 41" id="R"/><path d="M114-163C36-179 61-72 57 0H25l-1-190h30c1 12-1 29 2 39 6-27 23-49 58-41v29" id="S"/><g id="a"><use transform="matrix(0.05,0,0,0.05,0,0)" xlink:href="#P"/><use transform="matrix(0.05,0,0,0.05,12,0)" xlink:href="#Q"/><use transform="matrix(0.05,0,0,0.05,17,0)" xlink:href="#R"/><use transform="matrix(0.05,0,0,0.05,27,0)" xlink:href="#S"/><use transform="matrix(0.05,0,0,0.05,32.95,0)" xlink:href="#Q"/></g><path d="M30 0v-248h187v28H63v79h144v27H63v87h162V0H30" id="T"/><path d="M117-194c89-4 53 116 60 194h-32v-121c0-31-8-49-39-48C34-167 62-67 57 0H25l-1-190h30c1 10-1 24 2 32 11-22 29-35 61-36" id="U"/><path d="M85-194c31 0 48 13 60 33l-1-100h32l1 261h-30c-2-10 0-23-3-31C134-8 116 4 85 4 32 4 16-35 15-94c0-66 23-100 70-100zm9 24c-40 0-46 34-46 75 0 40 6 74 45 74 42 0 51-32 51-76 0-42-9-74-50-73" id="V"/><g id="b"><use transform="matrix(0.05,0,0,0.05,0,0)" xlink:href="#T"/><use transform="matrix(0.05,0,0,0.05,12,0)" xlink:href="#U"/><use transform="matrix(0.05,0,0,0.05,22,0)" xlink:href="#V"/></g><path d="M24-231v-30h32v30H24zM24 0v-190h32V0H24" id="W"/><path d="M135-143c-3-34-86-38-87 0 15 53 115 12 119 90S17 21 10-45l28-5c4 36 97 45 98 0-10-56-113-15-118-90-4-57 82-63 122-42 12 7 21 19 24 35" id="X"/><path d="M212-179c-10-28-35-45-73-45-59 0-87 40-87 99 0 60 29 101 89 101 43 0 62-24 78-52l27 14C228-24 195 4 139 4 59 4 22-46 18-125c-6-104 99-153 187-111 19 9 31 26 39 46" id="Y"/><path d="M100-194c62-1 85 37 85 99 1 63-27 99-86 99S16-35 15-95c0-66 28-99 85-99zM99-20c44 1 53-31 53-75 0-43-8-75-51-75s-53 32-53 75 10 74 51 75" id="Z"/><path d="M210-169c-67 3-38 105-44 169h-31v-121c0-29-5-50-35-48C34-165 62-65 56 0H25l-1-190h30c1 10-1 24 2 32 10-44 99-50 107 0 11-21 27-35 58-36 85-2 47 119 55 194h-31v-121c0-29-5-49-35-48" id="aa"/><path d="M115-194c55 1 70 41 70 98S169 2 115 4C84 4 66-9 55-30l1 105H24l-1-265h31l2 30c10-21 28-34 59-34zm-8 174c40 0 45-34 45-75s-6-73-45-74c-42 0-51 32-51 76 0 43 10 73 51 73" id="ab"/><path d="M24 0v-261h32V0H24" id="ac"/><path d="M100-194c63 0 86 42 84 106H49c0 40 14 67 53 68 26 1 43-12 49-29l28 8c-11 28-37 45-77 45C44 4 14-33 15-96c1-61 26-98 85-98zm52 81c6-60-76-77-97-28-3 7-6 17-6 28h103" id="ad"/><g id="d"><use transform="matrix(0.05,0,0,0.05,0,0)" xlink:href="#W"/><use transform="matrix(0.05,0,0,0.05,3.95,0)" xlink:href="#X"/><use transform="matrix(0.05,0,0,0.05,12.949999999999998,0)" xlink:href="#Y"/><use transform="matrix(0.05,0,0,0.05,25.899999999999995,0)" xlink:href="#Z"/><use transform="matrix(0.05,0,0,0.05,35.9,0)" xlink:href="#aa"/><use transform="matrix(0.05,0,0,0.05,50.85,0)" xlink:href="#ab"/><use transform="matrix(0.05,0,0,0.05,60.85,0)" xlink:href="#ac"/><use transform="matrix(0.05,0,0,0.05,64.8,0)" xlink:href="#ad"/><use transform="matrix(0.05,0,0,0.05,74.8,0)" xlink:href="#Q"/><use transform="matrix(0.05,0,0,0.05,79.8,0)" xlink:href="#ad"/><use transform="matrix(0.05,0,0,0.05,89.8,0)" xlink:href="#V"/></g><path d="M18-150v-26h174v26H18zm0 90v-26h174v26H18" id="ae"/><use transform="matrix(0.05,0,0,0.05,0,0)" xlink:href="#ae" id="e"/><path d="M101-234c-31-9-42 10-38 44h38v23H63V0H32v-167H5v-23h27c-7-52 17-82 69-68v24" id="af"/><g id="f"><use transform="matrix(0.05,0,0,0.05,0,0)" xlink:href="#af"/><use transform="matrix(0.05,0,0,0.05,5,0)" xlink:href="#R"/><use transform="matrix(0.05,0,0,0.05,15,0)" xlink:href="#ac"/><use transform="matrix(0.05,0,0,0.05,18.95,0)" xlink:href="#X"/><use transform="matrix(0.05,0,0,0.05,27.950000000000003,0)" xlink:href="#ad"/></g><path d="M233-177c-1 41-23 64-60 70L243 0h-38l-65-103H63V0H30v-248c88 3 205-21 203 71zM63-129c60-2 137 13 137-47 0-61-80-42-137-45v92" id="ag"/><path d="M9 0v-24l116-142H16v-24h144v24L44-24h123V0H9" id="ah"/><g id="g"><use transform="matrix(0.05,0,0,0.05,0,0)" xlink:href="#ag"/><use transform="matrix(0.05,0,0,0.05,12.950000000000001,0)" xlink:href="#R"/><use transform="matrix(0.05,0,0,0.05,22.950000000000003,0)" xlink:href="#U"/><use transform="matrix(0.05,0,0,0.05,32.95,0)" xlink:href="#V"/><use transform="matrix(0.05,0,0,0.05,42.95,0)" xlink:href="#Z"/><use transform="matrix(0.05,0,0,0.05,52.95,0)" xlink:href="#aa"/><use transform="matrix(0.05,0,0,0.05,67.9,0)" xlink:href="#W"/><use transform="matrix(0.05,0,0,0.05,71.85000000000001,0)" xlink:href="#ah"/><use transform="matrix(0.05,0,0,0.05,80.85000000000001,0)" xlink:href="#ad"/></g><path d="M206 0h-36l-40-164L89 0H53L-1-190h32L70-26l43-164h34l41 164 42-164h31" id="ai"/><path d="M143 0L79-87 56-68V0H24v-261h32v163l83-92h37l-77 82L181 0h-38" id="aj"/><g id="h"><use transform="matrix(0.05,0,0,0.05,0,0)" xlink:href="#U"/><use transform="matrix(0.05,0,0,0.05,10,0)" xlink:href="#ad"/><use transform="matrix(0.05,0,0,0.05,20,0)" xlink:href="#Q"/><use transform="matrix(0.05,0,0,0.05,25,0)" xlink:href="#ai"/><use transform="matrix(0.05,0,0,0.05,37.95,0)" xlink:href="#Z"/><use transform="matrix(0.05,0,0,0.05,47.95,0)" xlink:href="#S"/><use transform="matrix(0.05,0,0,0.05,53.900000000000006,0)" xlink:href="#aj"/></g><g id="i"><use transform="matrix(0.05,0,0,0.05,0,0)" xlink:href="#U"/><use transform="matrix(0.05,0,0,0.05,10,0)" xlink:href="#Z"/><use transform="matrix(0.05,0,0,0.05,20,0)" xlink:href="#V"/><use transform="matrix(0.05,0,0,0.05,30,0)" xlink:href="#ad"/><use transform="matrix(0.05,0,0,0.05,40,0)" xlink:href="#X"/></g><g id="j"><use transform="matrix(0.05,0,0,0.05,0,0)" xlink:href="#Y"/><use transform="matrix(0.05,0,0,0.05,12.950000000000001,0)" xlink:href="#S"/><use transform="matrix(0.05,0,0,0.05,18.900000000000002,0)" xlink:href="#ad"/><use transform="matrix(0.05,0,0,0.05,28.900000000000002,0)" xlink:href="#R"/><use transform="matrix(0.05,0,0,0.05,38.900000000000006,0)" xlink:href="#Q"/><use transform="matrix(0.05,0,0,0.05,43.900000000000006,0)" xlink:href="#ad"/></g><path d="M106-169C34-169 62-67 57 0H25v-261h32l-1 103c12-21 28-36 61-36 89 0 53 116 60 194h-32v-121c2-32-8-49-39-48" id="ak"/><g id="k"><use transform="matrix(0.05,0,0,0.05,0,0)" xlink:href="#ab"/><use transform="matrix(0.05,0,0,0.05,10,0)" xlink:href="#R"/><use transform="matrix(0.05,0,0,0.05,20,0)" xlink:href="#Q"/><use transform="matrix(0.05,0,0,0.05,25,0)" xlink:href="#ak"/><use transform="matrix(0.05,0,0,0.05,35,0)" xlink:href="#X"/></g><g id="l"><use transform="matrix(0.05,0,0,0.05,0,0)" xlink:href="#Q"/><use transform="matrix(0.05,0,0,0.05,5,0)" xlink:href="#ak"/><use transform="matrix(0.05,0,0,0.05,15,0)" xlink:href="#R"/><use transform="matrix(0.05,0,0,0.05,25,0)" xlink:href="#Q"/></g><g id="m"><use transform="matrix(0.05,0,0,0.05,0,0)" xlink:href="#ac"/><use transform="matrix(0.05,0,0,0.05,3.95,0)" xlink:href="#W"/><use transform="matrix(0.05,0,0,0.05,7.9,0)" xlink:href="#U"/><use transform="matrix(0.05,0,0,0.05,17.9,0)" xlink:href="#aj"/></g><g id="n"><use transform="matrix(0.05,0,0,0.05,0,0)" xlink:href="#R"/><use transform="matrix(0.05,0,0,0.05,10,0)" xlink:href="#ac"/><use transform="matrix(0.05,0,0,0.05,13.949999999999998,0)" xlink:href="#ac"/></g><g id="o"><use transform="matrix(0.05,0,0,0.05,0,0)" xlink:href="#U"/><use transform="matrix(0.05,0,0,0.05,10,0)" xlink:href="#Z"/><use transform="matrix(0.05,0,0,0.05,20,0)" xlink:href="#V"/><use transform="matrix(0.05,0,0,0.05,30,0)" xlink:href="#ad"/><use transform="matrix(0.05,0,0,0.05,40,0)" xlink:href="#X"/></g><g id="p"><use transform="matrix(0.05,0,0,0.05,0,0)" xlink:href="#W"/><use transform="matrix(0.05,0,0,0.05,3.95,0)" xlink:href="#X"/><use transform="matrix(0.05,0,0,0.05,12.949999999999998,0)" xlink:href="#Y"/><use transform="matrix(0.05,0,0,0.05,25.899999999999995,0)" xlink:href="#Z"/><use transform="matrix(0.05,0,0,0.05,35.9,0)" xlink:href="#aa"/><use transform="matrix(0.05,0,0,0.05,50.85,0)" xlink:href="#ab"/><use transform="matrix(0.05,0,0,0.05,60.85,0)" xlink:href="#ac"/><use transform="matrix(0.05,0,0,0.05,64.8,0)" xlink:href="#ad"/><use transform="matrix(0.05,0,0,0.05,74.8,0)" xlink:href="#Q"/><use transform="matrix(0.05,0,0,0.05,79.8,0)" xlink:href="#ad"/><use transform="matrix(0.05,0,0,0.05,89.8,0)" xlink:href="#V"/></g><g id="q"><use transform="matrix(0.05,0,0,0.05,0,0)" xlink:href="#af"/><use transform="matrix(0.05,0,0,0.05,5,0)" xlink:href="#R"/><use transform="matrix(0.05,0,0,0.05,15,0)" xlink:href="#ac"/><use transform="matrix(0.05,0,0,0.05,18.95,0)" xlink:href="#X"/><use transform="matrix(0.05,0,0,0.05,27.950000000000003,0)" xlink:href="#ad"/></g><path d="M143 4C61 4 22-44 18-125c-5-107 100-154 193-111 17 8 29 25 37 43l-32 9c-13-25-37-40-76-40-61 0-88 39-88 99 0 61 29 100 91 101 35 0 62-11 79-27v-45h-74v-28h105v86C228-13 192 4 143 4" id="al"/><g id="r"><use transform="matrix(0.05,0,0,0.05,0,0)" xlink:href="#al"/><use transform="matrix(0.05,0,0,0.05,14,0)" xlink:href="#ad"/><use transform="matrix(0.05,0,0,0.05,24,0)" xlink:href="#Q"/></g><g id="s"><use transform="matrix(0.05,0,0,0.05,0,0)" xlink:href="#U"/><use transform="matrix(0.05,0,0,0.05,10,0)" xlink:href="#Z"/><use transform="matrix(0.05,0,0,0.05,20,0)" xlink:href="#V"/><use transform="matrix(0.05,0,0,0.05,30,0)" xlink:href="#ad"/></g><path d="M96-169c-40 0-48 33-48 73s9 75 48 75c24 0 41-14 43-38l32 2c-6 37-31 61-74 61-59 0-76-41-82-99-10-93 101-131 147-64 4 7 5 14 7 22l-32 3c-4-21-16-35-41-35" id="am"/><g id="t"><use transform="matrix(0.05,0,0,0.05,0,0)" xlink:href="#am"/><use transform="matrix(0.05,0,0,0.05,9,0)" xlink:href="#R"/><use transform="matrix(0.05,0,0,0.05,19,0)" xlink:href="#U"/></g><path d="M108 0H70L1-190h34L89-25l56-165h34" id="an"/><g id="u"><use transform="matrix(0.05,0,0,0.05,0,0)" xlink:href="#ak"/><use transform="matrix(0.05,0,0,0.05,10,0)" xlink:href="#R"/><use transform="matrix(0.05,0,0,0.05,20,0)" xlink:href="#an"/><use transform="matrix(0.05,0,0,0.05,29,0)" xlink:href="#ad"/></g><path d="M141 0L90-78 38 0H4l68-98-65-92h35l48 74 47-74h35l-64 92 68 98h-35" id="ao"/><g id="v"><use transform="matrix(0.05,0,0,0.05,0,0)" xlink:href="#ad"/><use transform="matrix(0.05,0,0,0.05,10,0)" xlink:href="#ao"/><use transform="matrix(0.05,0,0,0.05,19,0)" xlink:href="#Q"/><use transform="matrix(0.05,0,0,0.05,24,0)" xlink:href="#S"/><use transform="matrix(0.05,0,0,0.05,29.950000000000003,0)" xlink:href="#R"/></g><g id="w"><use transform="matrix(0.05,0,0,0.05,0,0)" xlink:href="#ab"/><use transform="matrix(0.05,0,0,0.05,10,0)" xlink:href="#R"/><use transform="matrix(0.05,0,0,0.05,20,0)" xlink:href="#Q"/><use transform="matrix(0.05,0,0,0.05,25,0)" xlink:href="#ak"/><use transform="matrix(0.05,0,0,0.05,35,0)" xlink:href="#X"/></g><path d="M190 0L58-211 59 0H30v-248h39L202-35l-2-213h31V0h-41" id="ap"/><g id="x"><use transform="matrix(0.05,0,0,0.05,0,0)" xlink:href="#ap"/><use transform="matrix(0.05,0,0,0.05,12.950000000000001,0)" xlink:href="#Z"/><use transform="matrix(0.05,0,0,0.05,22.950000000000003,0)" xlink:href="#V"/><use transform="matrix(0.05,0,0,0.05,32.95,0)" xlink:href="#ad"/><use transform="matrix(0.05,0,0,0.05,42.95,0)" xlink:href="#X"/></g><path d="M205 0l-28-72H64L36 0H1l101-248h38L239 0h-34zm-38-99l-47-123c-12 45-31 82-46 123h93" id="aq"/><path d="M84 4C-5 8 30-112 23-190h32v120c0 31 7 50 39 49 72-2 45-101 50-169h31l1 190h-30c-1-10 1-25-2-33-11 22-28 36-60 37" id="ar"/><g id="y"><use transform="matrix(0.05,0,0,0.05,0,0)" xlink:href="#aq"/><use transform="matrix(0.05,0,0,0.05,12,0)" xlink:href="#aa"/><use transform="matrix(0.05,0,0,0.05,26.950000000000003,0)" xlink:href="#Z"/><use transform="matrix(0.05,0,0,0.05,36.95,0)" xlink:href="#ar"/><use transform="matrix(0.05,0,0,0.05,46.95,0)" xlink:href="#U"/><use transform="matrix(0.05,0,0,0.05,56.95,0)" xlink:href="#Q"/></g><path d="M18-100v-36l175-74v27L42-118l151 64v27" id="as"/><g id="z"><use transform="matrix(0.05,0,0,0.05,0,0)" xlink:href="#as"/><use transform="matrix(0.05,0,0,0.05,10.5,0)" xlink:href="#ae"/></g><path d="M27 0v-27h64v-190l-56 39v-29l58-41h29v221h61V0H27" id="at"/><use transform="matrix(0.05,0,0,0.05,0,0)" xlink:href="#at" id="A"/><g id="B"><use transform="matrix(0.05,0,0,0.05,0,0)" xlink:href="#Q"/><use transform="matrix(0.05,0,0,0.05,5,0)" xlink:href="#S"/><use transform="matrix(0.05,0,0,0.05,10.95,0)" xlink:href="#ar"/><use transform="matrix(0.05,0,0,0.05,20.95,0)" xlink:href="#ad"/></g><g id="C"><use transform="matrix(0.05,0,0,0.05,0,0)" xlink:href="#Q"/><use transform="matrix(0.05,0,0,0.05,5,0)" xlink:href="#S"/><use transform="matrix(0.05,0,0,0.05,10.95,0)" xlink:href="#ar"/><use transform="matrix(0.05,0,0,0.05,20.95,0)" xlink:href="#ad"/></g><g id="D"><use transform="matrix(0.05,0,0,0.05,0,0)" xlink:href="#ap"/><use transform="matrix(0.05,0,0,0.05,12.950000000000001,0)" xlink:href="#Z"/></g><g id="E"><use transform="matrix(0.05,0,0,0.05,0,0)" xlink:href="#aq"/><use transform="matrix(0.05,0,0,0.05,12,0)" xlink:href="#V"/><use transform="matrix(0.05,0,0,0.05,22,0)" xlink:href="#V"/></g><g id="F"><use transform="matrix(0.05,0,0,0.05,0,0)" xlink:href="#ab"/><use transform="matrix(0.05,0,0,0.05,10,0)" xlink:href="#R"/><use transform="matrix(0.05,0,0,0.05,20,0)" xlink:href="#Q"/><use transform="matrix(0.05,0,0,0.05,25,0)" xlink:href="#ak"/></g><g id="G"><use transform="matrix(0.05,0,0,0.05,0,0)" xlink:href="#af"/><use transform="matrix(0.05,0,0,0.05,5,0)" xlink:href="#Z"/><use transform="matrix(0.05,0,0,0.05,15,0)" xlink:href="#S"/></g><path d="M179-190L93 31C79 59 56 82 12 73V49c39 6 53-20 64-50L1-190h34L92-34l54-156h33" id="au"/><g id="H"><use transform="matrix(0.05,0,0,0.05,0,0)" xlink:href="#ad"/><use transform="matrix(0.05,0,0,0.05,10,0)" xlink:href="#an"/><use transform="matrix(0.05,0,0,0.05,19,0)" xlink:href="#ad"/><use transform="matrix(0.05,0,0,0.05,29,0)" xlink:href="#S"/><use transform="matrix(0.05,0,0,0.05,34.95,0)" xlink:href="#au"/></g><g id="I"><use transform="matrix(0.05,0,0,0.05,0,0)" xlink:href="#ai"/><use transform="matrix(0.05,0,0,0.05,12.950000000000001,0)" xlink:href="#W"/><use transform="matrix(0.05,0,0,0.05,16.900000000000002,0)" xlink:href="#Q"/><use transform="matrix(0.05,0,0,0.05,21.900000000000002,0)" xlink:href="#ak"/></g><g id="J"><use transform="matrix(0.05,0,0,0.05,0,0)" xlink:href="#R"/><use transform="matrix(0.05,0,0,0.05,10,0)" xlink:href="#U"/><use transform="matrix(0.05,0,0,0.05,20,0)" xlink:href="#Z"/><use transform="matrix(0.05,0,0,0.05,30,0)" xlink:href="#Q"/><use transform="matrix(0.05,0,0,0.05,35,0)" xlink:href="#ak"/><use transform="matrix(0.05,0,0,0.05,45,0)" xlink:href="#ad"/><use transform="matrix(0.05,0,0,0.05,55,0)" xlink:href="#S"/></g><g id="K"><use transform="matrix(0.05,0,0,0.05,0,0)" xlink:href="#Z"/><use transform="matrix(0.05,0,0,0.05,10,0)" xlink:href="#U"/><use transform="matrix(0.05,0,0,0.05,20,0)" xlink:href="#ad"/></g><path d="M115-194c53 0 69 39 70 98 0 66-23 100-70 100C84 3 66-7 56-30L54 0H23l1-261h32v101c10-23 28-34 59-34zm-8 174c40 0 45-34 45-75 0-40-5-75-45-74-42 0-51 32-51 76 0 43 10 73 51 73" id="av"/><g id="L"><use transform="matrix(0.05,0,0,0.05,0,0)" xlink:href="#av"/><use transform="matrix(0.05,0,0,0.05,10,0)" xlink:href="#ad"/></g><g id="M"><use transform="matrix(0.05,0,0,0.05,0,0)" xlink:href="#ac"/><use transform="matrix(0.05,0,0,0.05,3.95,0)" xlink:href="#W"/><use transform="matrix(0.05,0,0,0.05,7.9,0)" xlink:href="#U"/><use transform="matrix(0.05,0,0,0.05,17.9,0)" xlink:href="#aj"/><use transform="matrix(0.05,0,0,0.05,26.899999999999995,0)" xlink:href="#ad"/><use transform="matrix(0.05,0,0,0.05,36.9,0)" xlink:href="#V"/></g><path d="M33 0v-38h34V0H33" id="aw"/><g id="N"><use transform="matrix(0.05,0,0,0.05,0,0)" xlink:href="#ai"/><use transform="matrix(0.05,0,0,0.05,12.950000000000001,0)" xlink:href="#W"/><use transform="matrix(0.05,0,0,0.05,16.900000000000002,0)" xlink:href="#Q"/><use transform="matrix(0.05,0,0,0.05,21.900000000000002,0)" xlink:href="#ak"/><use transform="matrix(0.05,0,0,0.05,31.900000000000002,0)" xlink:href="#aw"/></g><g id="O"><use transform="matrix(0.05,0,0,0.05,0,0)" xlink:href="#X"/><use transform="matrix(0.05,0,0,0.05,9,0)" xlink:href="#ad"/><use transform="matrix(0.05,0,0,0.05,19,0)" xlink:href="#Q"/><use transform="matrix(0.05,0,0,0.05,24,0)" xlink:href="#ag"/><use transform="matrix(0.05,0,0,0.05,36.95,0)" xlink:href="#R"/><use transform="matrix(0.05,0,0,0.05,46.95,0)" xlink:href="#U"/><use transform="matrix(0.05,0,0,0.05,56.95,0)" xlink:href="#V"/><use transform="matrix(0.05,0,0,0.05,66.95,0)" xlink:href="#Z"/><use transform="matrix(0.05,0,0,0.05,76.95,0)" xlink:href="#aa"/><use transform="matrix(0.05,0,0,0.05,91.9,0)" xlink:href="#ag"/><use transform="matrix(0.05,0,0,0.05,104.85000000000001,0)" xlink:href="#ad"/><use transform="matrix(0.05,0,0,0.05,114.85000000000001,0)" xlink:href="#ac"/><use transform="matrix(0.05,0,0,0.05,118.80000000000001,0)" xlink:href="#R"/><use transform="matrix(0.05,0,0,0.05,128.8,0)" xlink:href="#Q"/><use transform="matrix(0.05,0,0,0.05,133.8,0)" xlink:href="#W"/><use transform="matrix(0.05,0,0,0.05,137.75,0)" xlink:href="#Z"/><use transform="matrix(0.05,0,0,0.05,147.75,0)" xlink:href="#U"/><use transform="matrix(0.05,0,0,0.05,157.75,0)" xlink:href="#X"/></g></defs></g></svg>